<svg width="103" height="126" viewBox="0 0 103 126" fill="none" xmlns="http://www.w3.org/2000/svg">
<g clip-path="url(#clip0_6524_2315)">
<path d="M103 33.3675C102.471 42.2465 102.225 51.1543 101.344 59.9977C100.152 71.9771 97.2593 83.5362 90.8217 93.961C86.078 101.641 79.7255 107.82 72.3513 112.935C66.196 117.206 59.83 121.176 53.547 125.264C52.1824 126.152 50.7304 126.281 49.3232 125.395C41.084 120.215 32.7306 115.211 25.1703 109.034C13.756 99.7105 6.89036 87.7066 3.57855 73.5363C1.051 62.7245 0.177114 51.7437 0.0650767 40.6851C-0.0223121 32.1309 0.00457678 23.5767 9.53038e-05 15.0225C9.53038e-05 12.5737 1.01515 11.317 3.41498 10.7654C18.9478 7.20225 34.4761 3.63911 50.0201 0.127122C50.959 -0.0841758 52.039 -0.0107777 52.9913 0.204968C68.318 3.67469 83.6356 7.18668 98.9556 10.692C101.678 11.3148 102.617 12.4914 102.619 15.2783C102.626 21.3013 102.619 27.3244 102.619 33.3475C102.747 33.3542 102.872 33.3631 103 33.3698V33.3675ZM94.9962 35.0668C94.9962 29.7421 94.9536 24.4174 95.0298 19.0927C95.0455 17.9072 94.7138 17.4557 93.5419 17.1911C79.795 14.0972 66.0615 10.9433 52.3191 7.82502C51.7387 7.69379 51.0777 7.64041 50.5063 7.76942C36.551 10.9367 22.6024 14.1439 8.64486 17.3023C7.71272 17.5136 7.61188 17.9673 7.61636 18.7502C7.65894 26.0811 7.62757 33.4142 7.70151 40.7474C7.80683 51.1499 8.60453 61.4857 10.9663 71.6569C13.8322 84.0055 19.6446 94.5927 29.5644 102.809C36.1701 108.28 43.4458 112.769 50.7125 117.275C51.0531 117.486 51.8104 117.373 52.1936 117.13C56.6728 114.288 61.1678 111.465 65.5551 108.489C72.0107 104.108 77.9218 99.1189 82.4996 92.731C88.1798 84.8062 91.0614 75.805 92.7622 66.3589C94.6242 56.0075 95.0096 45.5494 95.0007 35.0668H94.9962Z" fill="white"/>
<path d="M41.6104 94.0654C37.651 92.6108 34.4579 90.5134 31.6772 87.7954C21.8269 78.1692 20.1732 63.1693 27.6394 51.3722C28.2466 50.4114 28.883 49.4683 29.479 48.5008C31.7063 44.8932 32.0895 43.2851 31.7242 39.2304C34.6058 39.2282 36.0152 41.6814 36.9429 48.5942C39.9679 44.0658 42.5223 39.6129 44.046 34.633C45.5989 29.5619 45.9059 24.4618 44.2836 19.2461C50.3739 22.9338 55.7629 27.2999 59.9598 32.9893C64.2149 38.7611 66.7313 45.169 66.8971 52.3998C67.0271 52.4443 67.1548 52.4887 67.2847 52.5332C67.8472 51.0052 68.5463 49.5106 68.9384 47.9403C69.344 46.3189 69.4493 44.624 69.7227 42.7135C76.9737 50.3357 80.4087 59.2147 79.443 69.4837C78.4526 80.0197 73.1891 88.2069 64.2373 94.4391C64.867 91.6611 65.5213 89.2256 65.956 86.7545C66.8254 81.8035 66.6775 76.9147 64.3471 72.3173C63.6547 70.9517 62.6845 69.7262 61.7165 68.2449C59.3413 72.4463 56.146 74.7528 51.3979 75.0909C51.6197 74.4437 51.7587 74.001 51.92 73.5651C54.1921 67.4909 55.0324 61.2387 54.2392 54.793C54.042 53.1849 53.6006 51.6502 52.3054 50.1445C52.1441 51.0808 52.0343 51.7681 51.9043 52.4554C51.138 56.5034 49.146 59.8597 46.0739 62.6021C45.3546 63.2449 44.6421 63.8944 43.8937 64.5016C39.5623 68.018 37.763 72.6465 37.7429 78.0891C37.7249 82.4374 38.9192 86.5299 40.3376 90.5779C40.7118 91.6455 41.1107 92.702 41.6104 94.0676V94.0654Z" fill="white"/>
</g>
<defs>
<clipPath id="clip0_6524_2315">
<rect width="103" height="126" fill="white"/>
</clipPath>
</defs>
</svg>
