<svg width="322" height="113" viewBox="0 0 322 113" fill="none" xmlns="http://www.w3.org/2000/svg">
<g clip-path="url(#clip0_6519_1875)">
<path d="M138.508 36.9619C138.508 40.8776 135.735 44.0644 131.828 44.0644H126.505V29.8594H131.828C135.735 29.8594 138.508 33.0462 138.508 36.9619ZM137.456 36.9619C137.456 33.5928 135.168 30.8764 131.828 30.8764H127.575V43.0515H131.828C135.168 43.0515 137.456 40.3309 137.456 36.9661V36.9619Z" fill="white"/>
<path d="M150.575 39.03C150.575 39.191 150.554 39.3563 150.554 39.5174H141.383C141.624 41.81 143.366 43.3102 145.675 43.3102C147.337 43.3102 148.588 42.5389 149.176 41.4625L150.068 41.9922C149.239 43.3737 147.658 44.2848 145.654 44.2848C142.538 44.2848 140.331 42.0515 140.331 38.9876C140.331 35.9237 142.478 33.6904 145.573 33.6904C148.668 33.6904 150.575 36.2458 150.575 39.0258V39.03ZM141.383 38.5215H149.522C149.298 36.0466 147.556 34.6651 145.573 34.6651C143.265 34.6651 141.586 36.267 141.383 38.5215Z" fill="white"/>
<path d="M159.362 41.4032C159.362 43.0686 157.903 44.2848 155.738 44.2848C153.713 44.2848 152.377 43.3313 151.891 42.0346L152.762 41.5261C153.125 42.6236 154.22 43.3102 155.738 43.3102C157.155 43.3102 158.351 42.683 158.351 41.4032C158.351 38.6444 152.216 40.2251 152.216 36.5721C152.216 34.9702 153.595 33.6904 155.658 33.6904C157.298 33.6904 158.554 34.4829 159.1 35.7203L158.25 36.2077C157.827 35.1525 156.77 34.6651 155.658 34.6651C154.343 34.6651 153.227 35.3559 153.227 36.5721C153.227 39.2928 159.362 37.6866 159.362 41.4032Z" fill="white"/>
<path d="M160.82 38.9915C160.82 35.987 163.087 33.6943 166.144 33.6943C168.126 33.6943 169.826 34.7072 170.558 36.2921L169.729 36.7794C169.141 35.4996 167.767 34.669 166.148 34.669C163.7 34.669 161.856 36.576 161.856 38.9915C161.856 41.4071 163.7 43.3141 166.148 43.3141C167.788 43.3141 169.124 42.4623 169.792 41.2037L170.642 41.7122C169.83 43.2759 168.131 44.2887 166.148 44.2887C163.091 44.2887 160.825 41.9961 160.825 38.9915H160.82Z" fill="white"/>
<path d="M182.705 33.9152V44.0604H181.673V41.7677C180.823 43.2891 179.263 44.285 177.322 44.285C174.447 44.285 172.08 41.9923 172.08 38.9878C172.08 35.9832 174.447 33.6906 177.322 33.6906C179.267 33.6906 180.823 34.6864 181.673 36.2078V33.9152H182.705ZM181.673 38.9878C181.673 36.5722 179.809 34.6652 177.403 34.6652C174.997 34.6652 173.111 36.5722 173.111 38.9878C173.111 41.4033 174.993 43.3103 177.403 43.3103C179.813 43.3103 181.673 41.4033 181.673 38.9878ZM177.563 32.4955H176.57L178.189 29.9189H179.403L177.559 32.4955H177.563Z" fill="white"/>
<path d="M190.214 33.7754V34.7501C188.472 34.7501 186.831 35.8265 186.831 38.4242V44.0647H185.821V33.9195H186.831V35.907C187.521 34.3051 188.835 33.7754 190.214 33.7754Z" fill="white"/>
<path d="M201.655 33.9147V43.5726C201.655 46.6153 199.406 48.3401 196.615 48.3401C194.248 48.3401 192.565 47.3866 191.838 45.9034L192.73 45.3948C193.258 46.4712 194.391 47.3611 196.615 47.3611C199.148 47.3611 200.645 45.8779 200.645 43.5683V41.6995C199.816 43.2632 198.256 44.2761 196.294 44.2761C193.398 44.2761 191.051 41.9834 191.051 38.9788C191.051 35.9743 193.398 33.6816 196.294 33.6816C198.256 33.6816 199.816 34.6945 200.645 36.2582V33.9062H201.655V33.9147ZM200.645 38.9873C200.645 36.5718 198.763 34.6648 196.353 34.6648C193.943 34.6648 192.062 36.5718 192.062 38.9873C192.062 41.4028 193.943 43.3098 196.353 43.3098C198.763 43.3098 200.645 41.4028 200.645 38.9873Z" fill="white"/>
<path d="M214.712 33.915V44.0602H213.68V41.7676C212.83 43.289 211.27 44.2848 209.329 44.2848C206.454 44.2848 204.086 41.9922 204.086 38.9876C204.086 35.9831 206.454 33.6904 209.329 33.6904C211.274 33.6904 212.83 34.6863 213.68 36.2077V33.915H214.712ZM213.68 38.9876C213.68 36.5721 211.815 34.6651 209.41 34.6651C207.004 34.6651 205.118 36.5721 205.118 38.9876C205.118 41.4032 207 43.3102 209.41 43.3102C211.82 43.3102 213.68 41.4032 213.68 38.9876Z" fill="white"/>
<path d="M217.828 29.249H218.838V44.06H217.828V29.249Z" fill="white"/>
<path d="M231.899 33.915V44.0602H230.867V41.7676C230.017 43.289 228.457 44.2848 226.516 44.2848C223.641 44.2848 221.273 41.9922 221.273 38.9876C221.273 35.9831 223.641 33.6904 226.516 33.6904C228.461 33.6904 230.017 34.6863 230.867 36.2077V33.915H231.899ZM230.867 38.9876C230.867 36.5721 229.002 34.6651 226.597 34.6651C224.191 34.6651 222.305 36.5721 222.305 38.9876C222.305 41.4032 224.187 43.3102 226.597 43.3102C229.007 43.3102 230.867 41.4032 230.867 38.9876Z" fill="white"/>
<path d="M250.363 29.8594V44.0644H249.352V41.7124C248.524 43.2761 246.963 44.289 245.002 44.289C242.105 44.289 239.759 41.9963 239.759 38.9918C239.759 35.9872 242.105 33.6946 245.002 33.6946C246.963 33.6946 248.524 34.7074 249.352 36.2711V29.8594H250.363ZM249.352 38.9918C249.352 36.5762 247.471 34.6692 245.061 34.6692C242.651 34.6692 240.769 36.5762 240.769 38.9918C240.769 41.4073 242.651 43.3143 245.061 43.3143C247.471 43.3143 249.352 41.4073 249.352 38.9918Z" fill="white"/>
<path d="M263.035 39.03C263.035 39.191 263.014 39.3563 263.014 39.5174H253.843C254.084 41.81 255.826 43.3102 258.134 43.3102C259.796 43.3102 261.048 42.5389 261.635 41.4625L262.527 41.9922C261.699 43.3737 260.117 44.2848 258.113 44.2848C254.997 44.2848 252.79 42.0515 252.79 38.9876C252.79 35.9237 254.938 33.6904 258.033 33.6904C261.128 33.6904 263.035 36.2458 263.035 39.0258V39.03ZM253.843 38.5215H261.982C261.758 36.0466 260.02 34.6651 258.033 34.6651C255.724 34.6651 254.046 36.267 253.843 38.5215Z" fill="white"/>
<path d="M149.167 70.0964C149.167 75.5886 144.982 80.1738 138.204 80.1738C131.426 80.1738 126.268 74.9402 126.268 68.4395C126.268 61.9387 131.164 56.7051 138.073 56.7051C142.288 56.7051 145.954 58.9172 147.836 62.1972L146.314 63.1083C144.821 60.2478 141.641 58.362 138.077 58.362C132.111 58.362 127.989 62.8498 127.989 68.4395C127.989 74.0291 132.107 78.5169 138.204 78.5169C143.717 78.5169 147.058 75.1055 147.413 70.8465H137.781V69.2234H149.163V70.1007L149.167 70.0964Z" fill="white"/>
<path d="M152.051 71.6901C152.051 66.8802 155.844 63.2061 160.579 63.2061C165.315 63.2061 169.078 66.8802 169.078 71.6901C169.078 76.4999 165.285 80.1741 160.579 80.1741C155.873 80.1741 152.051 76.4999 152.051 71.6901ZM167.425 71.6901C167.425 67.821 164.44 64.7656 160.579 64.7656C156.719 64.7656 153.704 67.821 153.704 71.6901C153.704 75.5591 156.719 78.6146 160.579 78.6146C164.44 78.6146 167.425 75.5591 167.425 71.6901Z" fill="white"/>
<path d="M171.868 71.6901C171.868 66.8802 175.661 63.2061 180.396 63.2061C185.132 63.2061 188.895 66.8802 188.895 71.6901C188.895 76.4999 185.102 80.1741 180.396 80.1741C175.69 80.1741 171.868 76.4999 171.868 71.6901ZM187.242 71.6901C187.242 67.821 184.257 64.7656 180.396 64.7656C176.536 64.7656 173.521 67.821 173.521 71.6901C173.521 75.5591 176.536 78.6146 180.396 78.6146C184.257 78.6146 187.242 75.5591 187.242 71.6901Z" fill="white"/>
<path d="M208.809 63.562V79.0341C208.809 83.9118 205.211 86.6748 200.733 86.6748C196.941 86.6748 194.248 85.1492 193.081 82.7761L194.51 81.9624C195.351 83.6872 197.169 85.1153 200.738 85.1153C204.792 85.1153 207.19 82.7422 207.19 79.0383V76.0465C205.858 78.551 203.363 80.1741 200.218 80.1741C195.579 80.1741 191.816 76.4999 191.816 71.6901C191.816 66.8802 195.579 63.2061 200.218 63.2061C203.363 63.2061 205.862 64.8291 207.19 67.3336V63.562H208.809ZM207.19 71.6901C207.19 67.821 204.175 64.7656 200.315 64.7656C196.455 64.7656 193.44 67.821 193.44 71.6901C193.44 75.5591 196.455 78.6146 200.315 78.6146C204.175 78.6146 207.19 75.5591 207.19 71.6901Z" fill="white"/>
<path d="M213.807 56.0869H215.426V79.8184H213.807V56.0869Z" fill="white"/>
<path d="M235.73 71.754C235.73 72.0125 235.696 72.2752 235.696 72.5337H221.003C221.392 76.2079 224.183 78.6107 227.878 78.6107C230.538 78.6107 232.55 77.3732 233.489 75.6527L234.918 76.496C233.586 78.7081 231.058 80.1702 227.848 80.1702C222.855 80.1702 219.32 76.5935 219.32 71.6862C219.32 66.7788 222.758 63.2021 227.722 63.2021C232.685 63.2021 235.734 67.2958 235.734 71.7497L235.73 71.754ZM221.007 70.9403H234.047C233.692 66.9738 230.901 64.7659 227.722 64.7659C224.026 64.7659 221.333 67.334 221.007 70.9403Z" fill="white"/>
<path d="M247.146 74.8088L248.638 73.9316C249.416 76.6607 251.72 78.5169 255.449 78.5169C259.179 78.5169 261.157 76.5675 261.157 73.9655C261.157 71.2364 258.756 70.1939 255.289 69.0878C251.496 67.8504 248.088 66.7782 248.088 62.8159C248.088 59.0782 251.103 56.7051 254.963 56.7051C258.824 56.7051 261.157 58.8494 262.261 61.4853L260.802 62.2989C259.961 60.2521 258.206 58.3663 254.963 58.3663C251.72 58.3663 249.839 60.2182 249.839 62.7566C249.839 65.4857 252.143 66.3333 255.386 67.4054C259.407 68.7403 262.908 70.0074 262.908 73.9401C262.908 77.8727 259.957 80.1823 255.449 80.1823C251.2 80.1823 248.186 78.038 247.146 74.8173V74.8088Z" fill="white"/>
<path d="M269.783 65.1558V75.7206C269.783 78.5811 271.305 78.6446 274.615 78.3522V79.8143C270.366 80.4626 268.13 79.4244 268.13 75.7163V65.1516H264.561V63.5582H268.13V59.4942L269.783 59.0068V63.5582H274.615V65.1516H269.783V65.1558Z" fill="white"/>
<path d="M276.434 71.6901C276.434 66.8802 280.226 63.2061 284.962 63.2061C289.697 63.2061 293.46 66.8802 293.46 71.6901C293.46 76.4999 289.668 80.1741 284.962 80.1741C280.256 80.1741 276.434 76.4999 276.434 71.6901ZM291.807 71.6901C291.807 67.821 288.822 64.7656 284.962 64.7656C281.101 64.7656 278.087 67.821 278.087 71.6901C278.087 75.5591 281.101 78.6146 284.962 78.6146C288.822 78.6146 291.807 75.5591 291.807 71.6901Z" fill="white"/>
<path d="M304.39 63.333V64.8925C301.599 64.8925 298.973 66.6173 298.973 70.7745V79.8094H297.354V63.5576H298.973V66.7444C300.077 64.1763 302.182 63.333 304.39 63.333Z" fill="white"/>
<path d="M322 71.754C322 72.0125 321.966 72.2752 321.966 72.5337H307.274C307.663 76.2079 310.453 78.6107 314.149 78.6107C316.808 78.6107 318.821 77.3732 319.759 75.6527L321.188 76.496C319.856 78.7081 317.328 80.1702 314.119 80.1702C309.126 80.1702 305.591 76.5935 305.591 71.6862C305.591 66.7788 309.028 63.2021 313.992 63.2021C318.956 63.2021 322.004 67.2958 322.004 71.7497L322 71.754ZM307.278 70.9403H320.317C319.962 66.9738 317.172 64.7659 313.992 64.7659C310.297 64.7659 307.603 67.334 307.278 70.9403Z" fill="white"/>
<path d="M94.2275 3.10156H19.1532C10.4502 3.10156 3.39502 10.1728 3.39502 18.8957V94.1415C3.39502 102.864 10.4502 109.936 19.1532 109.936H94.2275C102.93 109.936 109.986 102.864 109.986 94.1415V18.8957C109.986 10.1728 102.93 3.10156 94.2275 3.10156Z" fill="url(#paint0_linear_6519_1875)"/>
<g filter="url(#filter0_d_6519_1875)">
<path d="M19.3773 69.9022L19.3604 56.0235H49.363C52.9273 56.0108 55.8236 58.8924 55.8362 62.4649L55.8489 76.369L25.8463 76.3478C22.282 76.3605 19.3857 73.4746 19.373 69.9022H19.3773Z" fill="#FFA80D"/>
<path d="M42.0019 17.7777L55.8489 17.7607V47.8319C55.8616 51.4044 52.9865 54.3072 49.4222 54.3199L35.5498 54.3327L35.5709 24.2615C35.5583 20.689 38.4376 17.7862 42.0019 17.7735V17.7777Z" fill="#FFA80D"/>
<path d="M71.3832 92.5999L57.5362 92.6168V62.5457C57.5235 58.9732 60.3986 56.0703 63.9629 56.0576L77.8353 56.0449L77.8142 86.1161C77.8269 89.6885 74.9475 92.5914 71.3832 92.6041V92.5999Z" fill="#FFA80D"/>
<path d="M94.0117 40.4541L94.0286 54.3328H64.026C60.4617 54.3455 57.5654 51.4639 57.5527 47.8914L57.54 33.9873L87.5427 34.0085C91.107 33.9958 94.0032 36.8817 94.0159 40.4541H94.0117Z" fill="#FFA80D"/>
</g>
</g>
<defs>
<filter id="filter0_d_6519_1875" x="19.3604" y="17.7607" width="96.0085" height="101.866" filterUnits="userSpaceOnUse" color-interpolation-filters="sRGB">
<feFlood flood-opacity="0" result="BackgroundImageFix"/>
<feColorMatrix in="SourceAlpha" type="matrix" values="0 0 0 0 0 0 0 0 0 0 0 0 0 0 0 0 0 0 127 0" result="hardAlpha"/>
<feOffset dx="11.34" dy="17.01"/>
<feGaussianBlur stdDeviation="5"/>
<feColorMatrix type="matrix" values="0 0 0 0 0 0 0 0 0 0 0 0 0 0 0 0 0 0 0.15 0"/>
<feBlend mode="normal" in2="BackgroundImageFix" result="effect1_dropShadow_6519_1875"/>
<feBlend mode="normal" in="SourceGraphic" in2="effect1_dropShadow_6519_1875" result="shape"/>
</filter>
<linearGradient id="paint0_linear_6519_1875" x1="56.6945" y1="2.94053" x2="56.6945" y2="110.648" gradientUnits="userSpaceOnUse">
<stop stop-color="#3292F0"/>
<stop offset="0.06" stop-color="#2375D6"/>
<stop offset="0.12" stop-color="#1860C3"/>
<stop offset="0.18" stop-color="#1254B8"/>
<stop offset="0.24" stop-color="#1050B5"/>
<stop offset="0.52" stop-color="#0F4EB1"/>
<stop offset="0.79" stop-color="#0E49A5"/>
<stop offset="0.88" stop-color="#0E47A0"/>
<stop offset="0.91" stop-color="#0E49A3"/>
<stop offset="0.93" stop-color="#1052AF"/>
<stop offset="0.96" stop-color="#1361C2"/>
<stop offset="0.98" stop-color="#1875DD"/>
<stop offset="1" stop-color="#1E8FFF"/>
</linearGradient>
<clipPath id="clip0_6519_1875">
<rect width="322" height="113" fill="white"/>
</clipPath>
</defs>
</svg>
