<svg width="132" height="128" viewBox="0 0 132 128" fill="none" xmlns="http://www.w3.org/2000/svg">
<g clip-path="url(#clip0_6530_2354)">
<path d="M110.64 66.4669C111.949 65.9396 112.575 65.3126 112.262 63.7832C111.831 61.662 111.808 59.4587 111.33 57.3492C109.897 50.9797 106.87 45.4129 102.417 40.6079C102.016 40.1743 101.732 40.104 101.184 40.438C100.187 41.0474 99.131 41.5924 98.0515 42.0436C96.4411 42.7057 94.7658 43.2683 92.9902 42.9636C91.7692 42.7526 90.5422 42.4596 89.3742 42.0494C83.6346 40.022 77.9067 37.9418 72.1789 35.8791C71.2822 35.5568 70.4446 35.1994 69.4005 35.3635C66.2918 35.8381 63.1594 36.1487 60.0389 36.5647C56.4996 37.0394 52.9779 37.6195 49.4327 38.0531C47.8341 38.2465 46.4891 38.7738 45.4155 39.9751C44.7312 40.7486 44.0057 41.4869 43.2978 42.2369C41.186 44.4695 39.0919 46.7255 36.9447 48.9229C36.1129 49.7726 35.9654 50.0714 36.6851 51.0734C38.3132 53.3529 40.6551 54.3666 43.3804 54.3431C45.6043 54.3256 47.6394 53.4876 49.3501 52.0872C50.8897 50.8273 52.3172 49.421 53.7684 48.0498C54.2816 47.5634 54.7771 47.3115 55.5321 47.4462C56.5468 47.6279 57.585 47.6689 58.6114 47.7744C60.5993 47.9736 62.5872 48.1611 64.5693 48.3897C65.3007 48.4717 66.0086 48.5479 66.6929 49.0049C70.2145 51.3488 73.7952 53.6107 77.3404 55.9194C86.0531 61.5858 94.6596 67.4162 102.995 73.6275C103.561 74.0494 104.039 74.6471 104.428 75.2448C105.189 76.4343 104.995 78.0751 104.104 79.0185C103.431 79.7334 101.703 80.2549 100.317 79.4521C98.2049 78.2216 96.0341 77.0965 93.8869 75.9245C89.8402 73.7213 85.7995 71.5004 81.7292 69.3265C81.2986 69.098 80.6851 69.0218 80.2014 69.1155C79.3932 69.2796 79.0157 69.9769 78.9862 70.7387C78.9567 71.5473 79.4168 72.1216 80.1483 72.52C85.1093 75.2097 90.0585 77.9227 95.0254 80.6123C95.8866 81.0811 96.5355 81.714 96.9366 82.6046C97.5206 83.8996 97.2316 85.4818 96.2228 86.4135C95.3321 87.2397 93.8279 87.392 92.595 86.7533C91.5509 86.2084 90.5245 85.64 89.4863 85.0833C85.4514 82.9035 81.4225 80.7178 77.3817 78.5438C76.2314 77.9227 75.1578 78.3974 74.7862 79.6396C74.5325 80.4893 74.9219 81.2628 75.9129 81.8077C78.8447 83.4074 81.7823 84.9954 84.72 86.5893C86.0708 87.3217 87.1149 88.3355 87.6045 89.8121C88.1472 91.4646 87.2152 93.3983 85.6992 93.8026C84.5902 94.1014 83.5225 94.0135 82.4843 93.4744C79.3107 91.8337 76.1253 90.2106 72.9339 88.6109C72.5387 88.4116 72.0373 88.2886 71.6067 88.3413C70.8221 88.4351 70.2853 89.0679 70.185 89.7945C70.0671 90.6266 70.4328 91.3356 71.2409 91.7575C72.8455 92.5955 74.4441 93.451 76.084 94.2186C77.1812 94.7343 77.7828 95.584 78.1132 96.6797C78.4258 97.711 78.243 98.6896 77.4407 99.3869C76.6385 100.09 75.6356 100.266 74.6033 99.7854C74.0075 99.51 73.4 99.2521 72.7983 98.9826C71.1702 98.256 69.548 97.5235 67.8137 96.7442C67.4361 97.6349 67.1176 98.4845 66.7224 99.2932C66.4746 99.8088 66.6221 100.014 67.1058 100.237C68.9876 101.098 70.8339 102.047 72.7334 102.856C73.6713 103.254 74.7154 103.682 75.6946 103.647C78.6972 103.536 81.3576 101.813 81.6643 97.9337C81.682 97.6935 81.7292 97.4532 81.7646 97.1602C84.1891 97.7462 86.5014 97.8517 88.5366 96.3399C90.5422 94.8456 91.256 92.6775 91.3209 90.1813C93.7099 91.1071 95.9456 91.0251 97.9748 89.5484C100.01 88.0718 100.724 85.9095 100.795 83.466C101.266 83.466 101.668 83.4777 102.063 83.466C104.57 83.3605 106.487 82.2824 107.631 80.0146C108.976 77.3543 108.546 74.3483 106.422 72.0044C105.643 71.143 104.7 70.4398 103.762 69.6019C103.909 69.514 104.021 69.4378 104.145 69.3851C106.304 68.4007 108.44 67.3576 110.634 66.4669H110.64Z" fill="white"/>
<path d="M123.093 73.5276C122.863 74.553 122.721 75.596 122.473 76.6156C118.35 93.5385 108.652 106.289 93.3326 114.733C84.726 119.48 75.4117 121.689 65.5723 121.654C63.8793 121.654 62.1922 121.513 60.4992 121.39C56.1163 121.068 51.8455 120.153 47.6809 118.776C38.3488 115.7 30.3086 110.59 23.5602 103.488C19.4546 99.1697 16.104 94.3237 13.4967 88.9679C11.3318 84.5204 9.80393 79.8736 8.80112 75.0394C8.75393 74.805 8.57106 74.5003 8.3705 74.4124C6.27638 73.5158 4.17047 72.6545 1.97607 71.7462C3.77524 89.5012 15.2781 110.93 38.2662 121.794C60.7116 132.4 87.5221 129.312 106.947 113.133C120.385 101.941 127.93 87.5616 129.959 70.0938C127.658 71.0958 125.564 71.9982 123.488 72.9357C123.299 73.0178 123.134 73.299 123.087 73.5158L123.093 73.5276Z" fill="white"/>
<path d="M28.8222 35.1875C28.8222 35.1875 28.7809 35.2285 28.7632 35.252C28.7927 35.2695 28.8281 35.2871 28.8576 35.3106C28.8694 35.3164 28.8694 35.3516 28.8222 35.1875Z" fill="white"/>
<path d="M16.2454 73.7799C18.1921 73.481 19.5193 72.1685 20.882 70.8735C19.3896 70.0004 19.3483 70.0062 18.2098 71.0258C18.1213 71.102 18.0328 71.184 17.9384 71.2543C16.7586 72.1626 15.7794 71.8989 15.5022 70.4398C15.219 68.9339 14.9418 67.3635 15.0952 65.8575C15.3901 62.9159 15.8325 59.9685 16.4814 57.0855C17.8381 51.0383 20.2449 45.4129 24.0851 40.4849C25.5008 38.6684 27.1525 37.0335 28.7688 35.2463C23.8904 32.3926 19.012 29.5331 14.1159 26.7028C13.9272 26.5915 13.5024 26.6559 13.3196 26.8024C12.6353 27.3357 11.9805 27.9158 11.3552 28.5135C6.6715 33.0137 3.78104 38.5453 2.00546 44.698C0.796185 48.8526 0.0824166 53.0892 0.0116296 57.4078C-0.0296628 60.0623 0.0765177 62.7226 0.165001 65.3829C0.1709 65.6349 0.424554 65.9865 0.66051 66.1154C5.35605 68.6116 10.0516 71.0903 14.7707 73.5396C15.1954 73.7623 15.7735 73.8561 16.2454 73.7858V73.7799Z" fill="white"/>
<path d="M131.723 52.925C131.451 49.0634 130.531 45.3191 129.186 41.686C126.85 35.3927 123.122 30.0955 117.742 25.982C117.294 25.6421 116.981 25.6186 116.504 25.9234C113.436 27.8922 110.345 29.8201 107.266 31.7655C105.738 32.7324 104.21 33.6934 102.712 34.6426C103.909 35.7501 105.089 36.7228 106.133 37.8245C110.209 42.1548 112.805 47.3114 114.445 52.9602C115.66 57.144 116.509 61.404 116.427 65.7871C116.409 66.8008 116.232 67.838 115.955 68.8166C115.619 70.0061 114.811 70.2347 113.802 69.5198C113.401 69.2385 113.076 68.8518 112.687 68.5529C112.528 68.4357 112.262 68.3302 112.091 68.3771C111.625 68.506 111.183 68.717 110.717 68.8986C111.454 70.0589 113.784 71.7406 115.017 71.8871C115.595 71.9574 116.279 71.8988 116.787 71.641C121.6 69.1799 126.384 66.6602 131.192 64.1757C131.628 63.953 131.823 63.6425 131.864 63.203C131.923 62.5994 132.024 61.99 132.006 61.3865C131.941 58.5621 131.929 55.7318 131.729 52.9133L131.723 52.925Z" fill="white"/>
<path d="M66.044 6.3461C82.9857 6.39298 97.1254 13.0028 108.77 25.1207C110.522 23.9663 112.244 22.8295 113.961 21.6927C113.908 21.5697 113.896 21.4994 113.855 21.4466C113.678 21.2298 113.495 21.013 113.306 20.8021C107.885 14.954 101.614 10.2252 94.4532 6.66839C86.0355 2.49626 77.0927 0.292997 67.7016 0.0234495C64.4454 -0.0703062 61.1597 0.140644 57.9094 0.44535C54.0221 0.808654 50.2055 1.6466 46.4655 2.78338C35.4228 6.14101 26.1084 12.1648 18.4103 20.6966C18.2451 20.8782 18.1154 21.0892 17.9502 21.3119C19.714 22.5014 21.407 23.6382 23.0823 24.7691C34.9627 12.9676 49.0965 6.29922 66.044 6.3461Z" fill="white"/>
<path d="M30.81 43.4561C31.2053 42.9991 31.5592 42.8936 32.1373 43.0518C33.6533 43.462 35.1929 43.8077 36.7267 44.1476C36.939 44.1945 37.2929 44.1534 37.4109 44.0128C38.225 43.087 38.9918 42.1201 39.8354 41.0947C39.5109 40.9892 39.3458 40.9189 39.1688 40.8778C36.7208 40.3212 34.2668 39.7997 31.8306 39.1902C30.8631 38.9441 30.114 39.0555 29.4002 39.7879C27.2353 42.0029 25.4066 44.4581 23.8611 47.1302C20.4457 53.0309 18.6701 59.3653 18.6465 66.186C18.6465 67.2408 18.9886 67.9791 20.0032 68.3952C20.8055 68.7233 21.59 69.1218 22.3569 69.5261C23.9909 70.3933 25.6603 71.2078 27.2235 72.1923C28.185 72.7958 28.9932 73.6631 29.8544 74.4248C31.0932 75.5264 32.3261 76.6398 33.6238 77.8117C33.9483 76.757 34.2137 75.796 34.5441 74.8526C34.6974 74.419 34.6679 74.1318 34.3081 73.8095C33.1932 72.8017 32.1314 71.7352 31.0224 70.7215C29.5418 69.3737 28.0022 68.1197 26.1145 67.3404C24.9406 66.854 23.808 66.2798 22.6872 65.6821C22.4336 65.5473 22.1445 65.1606 22.1622 64.9086C22.2743 63.4437 22.41 61.9787 22.6518 60.5314C23.7313 54.0681 26.5097 48.4076 30.7982 43.4503L30.81 43.4561Z" fill="white"/>
<path d="M51.285 97.4589C53.0134 98.3613 55.5322 97.4824 56.5114 95.5486C58.0569 92.5016 59.5671 89.4311 61.0418 86.3489C61.3662 85.6691 61.4783 84.8898 61.6907 84.1515C61.5668 82.2588 60.4696 80.6884 58.9536 80.3836C57.1544 80.0203 55.1724 81.0634 54.4409 82.751C54.2462 83.2022 54.0398 83.6475 53.8333 84.0987C52.5061 86.9641 51.1611 89.8295 49.8516 92.7067C49.0139 94.5466 49.6569 96.6093 51.2791 97.4648L51.285 97.4589Z" fill="white"/>
<path d="M43.9528 92.1035C45.5278 92.6719 47.5216 91.8749 48.3121 90.2752C49.5921 87.6735 50.8368 85.0484 52.0579 82.4173C52.3292 81.8372 52.4531 81.1868 52.5534 80.8762C52.5239 79.1828 52.0461 78.0577 50.825 77.3662C49.6216 76.6924 48.4241 76.8858 47.2739 77.5596C46.3477 78.1046 45.7165 78.9015 45.2741 79.8566C44.4601 81.6146 43.6224 83.3725 42.832 85.1421C42.4426 86.0152 42.0415 86.9 41.8174 87.82C41.3808 89.5955 42.4072 91.5351 43.9587 92.0976L43.9528 92.1035Z" fill="white"/>
<path d="M60.464 101.59C61.9682 101.42 63.1303 100.67 63.8618 99.3168C64.723 97.7347 65.5489 96.1291 66.3806 94.5353C66.5222 94.2657 66.6343 93.9786 66.7169 93.6915C67.1534 92.2031 66.7228 90.7147 65.6551 89.9705C64.6168 89.2498 63.0949 89.3494 61.921 90.3104C61.4255 90.7206 60.9772 91.2362 60.6587 91.7929C59.8623 93.1699 59.125 94.5821 58.4289 96.0119C58.0926 96.6975 57.7564 97.43 57.6679 98.1683C57.4615 99.9145 58.4525 101.479 60.464 101.59Z" fill="white"/>
<path d="M38.6853 85.7986C39.8886 85.5583 40.8973 85.0544 41.2749 83.7301C41.5226 82.857 41.8884 82.0132 42.1656 81.146C42.4842 80.1557 42.7614 79.1478 43.0387 78.1927C42.844 77.4485 42.7614 76.7863 42.5019 76.2062C41.9533 74.9698 41.0448 74.1612 39.5819 74.167C37.8358 74.1729 36.2313 75.4913 35.6886 77.4778C35.3583 78.6907 35.0574 79.9213 34.8628 81.1635C34.6563 82.482 34.9453 83.7301 35.8538 84.7673C36.6029 85.6169 37.5586 86.033 38.6912 85.8044L38.6853 85.7986Z" fill="white"/>
</g>
<defs>
<clipPath id="clip0_6530_2354">
<rect width="132" height="128" fill="white"/>
</clipPath>
</defs>
</svg>
