<svg width="116" height="116" viewBox="0 0 116 116" fill="none" xmlns="http://www.w3.org/2000/svg">
<g clip-path="url(#clip0_6530_2368)">
<path d="M61.876 23.2121C61.876 25.0882 61.8691 26.8866 61.8881 28.6841C61.8898 28.8292 62.0357 29.0166 62.1679 29.1099C65.1661 31.2218 68.1712 33.3234 71.1755 35.4275C79.9526 41.5733 88.7279 47.7198 97.5127 53.8543C97.7511 54.021 98.0861 54.1264 98.3772 54.1273C102.894 54.1446 107.411 54.1394 111.927 54.1394C114.354 54.1394 116 55.7771 116 58.1905C116 62.0031 116.001 65.8167 116 69.6294C116 71.7646 114.309 73.4714 112.175 73.4904C111.532 73.4965 110.889 73.4913 110.234 73.4913V108.274H115.969V116.001H0.0254351V108.287H5.7611V73.4913C5.44332 73.4913 5.11949 73.4913 4.79566 73.4913C4.46492 73.4913 4.13418 73.4947 3.80344 73.4913C1.69639 73.4662 0.00211942 71.7551 0.00125588 69.6475C-0.000471213 65.777 0.00125588 61.9064 0.00125588 58.0359C0.00125588 55.8522 1.69467 54.1437 3.88203 54.1402C8.4709 54.1342 13.0598 54.1428 17.6478 54.1273C17.925 54.1264 18.2454 54.0245 18.4725 53.8656C30.2366 45.6433 41.9929 37.4082 53.7552 29.1842C54.0384 28.9855 54.1317 28.78 54.1317 28.4448C54.1231 20.2874 54.1248 12.1291 54.1257 3.97161C54.1265 1.6714 55.8035 0 58.1057 0C65.787 0 73.4682 0 81.1494 0C83.38 0 85.0777 1.69904 85.0786 3.93706C85.0803 9.01603 85.0812 14.095 85.0794 19.174C85.0794 21.5537 83.4128 23.2112 81.0285 23.2112C74.843 23.2112 68.6574 23.2112 62.4727 23.2112H61.876V23.2121ZM88.8885 108.277V73.5172H27.12V108.255H42.5291C42.5291 108.051 42.5291 107.868 42.5291 107.686C42.5291 104.003 42.5308 100.32 42.5291 96.6369C42.5248 87.7167 50.2173 80.5785 59.1092 81.2531C67.2593 81.8707 73.4725 88.5701 73.4725 96.7397C73.4725 100.408 73.4812 104.077 73.4613 107.746C73.4587 108.198 73.5926 108.288 74.0183 108.287C78.779 108.272 83.5397 108.277 88.3005 108.277H88.8885ZM84.3057 54.123C84.0933 53.9614 83.9845 53.8725 83.8705 53.7921C75.3516 47.8278 66.8319 41.8661 58.3173 35.8957C58.0721 35.7238 57.9158 35.7324 57.6774 35.9009C54.0773 38.4326 50.4694 40.9531 46.8641 43.477C41.9972 46.8837 37.1311 50.2896 32.265 53.6971C32.1009 53.812 31.9446 53.9364 31.6977 54.123H84.3066H84.3057ZM108.23 61.9211H7.75157C7.75157 63.0699 7.75157 64.1885 7.75243 65.3071C7.75243 65.4323 7.76884 65.5584 7.7792 65.6975H108.23V61.9211ZM65.7205 108.255V107.658C65.7205 104.12 65.7248 100.581 65.7162 97.0428C65.7144 96.5272 65.6782 96.008 65.6091 95.4967C65.0253 91.2003 60.5979 88.1581 56.3795 89.1445C52.7155 90.0014 50.2881 93.0496 50.282 96.8174C50.276 100.456 50.2803 104.096 50.282 107.735C50.282 107.901 50.2976 108.069 50.3062 108.255H65.7213H65.7205ZM19.2954 108.276V73.5241H13.5503V74.0683C13.5503 85.2481 13.5503 96.427 13.5503 107.607C13.5503 107.693 13.5606 107.781 13.5485 107.866C13.5036 108.186 13.6323 108.288 13.957 108.283C15.0641 108.265 16.172 108.276 17.2799 108.276C17.9397 108.276 18.5994 108.276 19.2954 108.276ZM96.7071 73.512V108.276H97.1682C98.7649 108.276 100.362 108.263 101.958 108.286C102.359 108.292 102.46 108.173 102.459 107.779C102.449 96.5125 102.451 85.2472 102.45 73.981C102.45 73.8299 102.434 73.6787 102.425 73.512H96.7071ZM61.9157 7.7722V15.4243H77.2946V7.7722H61.9157Z" fill="white"/>
</g>
<defs>
<clipPath id="clip0_6530_2368">
<rect width="116" height="116" fill="white"/>
</clipPath>
</defs>
</svg>
