<svg width="131" height="107" viewBox="0 0 131 107" fill="none" xmlns="http://www.w3.org/2000/svg">
<g clip-path="url(#clip0_6528_2318)">
<path d="M65.4924 30.5711C47.8619 30.5711 30.2347 30.5711 12.6043 30.5711C10.3513 30.5711 9.76428 30.015 9.74524 27.8162C9.72938 25.754 9.83409 23.6886 9.71351 21.6327C9.61514 19.9486 10.3799 19.1638 11.8681 18.6236C27.5153 12.9326 43.2164 7.36879 58.7493 1.38233C63.4234 -0.419328 67.4153 -0.482879 72.118 1.33467C87.6985 7.3529 103.45 12.9199 119.148 18.6268C120.643 19.1701 121.376 19.9931 121.284 21.6581C121.173 23.714 121.258 25.7794 121.255 27.8416C121.249 29.9642 120.656 30.5647 118.536 30.5647C100.855 30.5647 83.1704 30.5647 65.4892 30.5647L65.4924 30.5711Z" fill="white"/>
<path d="M65.6761 98.7828C86.21 98.7828 106.741 98.7828 127.275 98.7828C130.73 98.7828 131.013 99.056 131 102.602C130.984 106.885 130.883 107 126.697 107C85.5246 107 44.3553 107 3.18275 107C0.577536 107 0.0634751 106.444 0.0158768 103.845C-0.0793198 98.4173 0.184057 98.7828 5.02956 98.7859C25.2461 98.8018 45.4627 98.7923 65.6761 98.7923V98.7828Z" fill="white"/>
<path d="M65.5083 84.2361C83.0276 84.2361 100.547 84.2361 118.066 84.2361C120.541 84.2361 121.008 84.7223 121.005 87.2135C121.005 87.9538 121.005 88.6942 121.002 89.4345C120.986 91.9162 120.491 92.4278 118.057 92.431C112.621 92.4373 107.185 92.4373 101.75 92.4373C72.41 92.4373 43.0673 92.4373 13.7277 92.4373C13.147 92.4373 12.5631 92.4627 11.9856 92.4182C10.8369 92.3261 10.0817 91.7224 10.0309 90.5371C9.96743 89.0596 9.95157 87.5757 10.0404 86.1013C10.1293 84.6333 11.1352 84.2234 12.4679 84.2266C18.0084 84.2456 23.5488 84.2298 29.0893 84.2298C41.2268 84.2298 53.3644 84.2298 65.5019 84.2298L65.5083 84.2361Z" fill="white"/>
<path d="M19.963 57.4148C19.963 51.5999 19.9567 45.785 19.963 39.9701C19.9662 37.7459 20.5691 37.1104 22.765 37.104C27.8834 37.0818 33.005 37.0818 38.1234 37.1008C40.3256 37.1104 40.9761 37.7649 40.9793 39.9352C40.9856 51.5649 40.9793 63.1947 40.9697 74.8244C40.9697 77.1853 40.3383 77.7827 37.9203 77.7859C32.9066 77.7922 27.8929 77.7922 22.8792 77.7859C20.6199 77.7859 19.9694 77.1408 19.963 74.8594C19.9535 69.0445 19.9599 63.2296 19.963 57.4148Z" fill="white"/>
<path d="M111.057 57.3762C111.057 63.191 111.06 69.0059 111.057 74.824C111.057 77.1149 110.409 77.779 108.166 77.7822C103.044 77.7918 97.926 77.7918 92.8044 77.7822C90.7291 77.779 90.0469 77.1149 90.0469 75.0178C90.0342 63.28 90.031 51.5422 90.0469 39.8076C90.0469 37.7676 90.6942 37.1067 92.6902 37.0972C97.9165 37.0718 103.143 37.0718 108.369 37.0972C110.413 37.1067 111.057 37.8217 111.06 39.9315C111.066 45.7464 111.06 51.5613 111.06 57.3793L111.057 57.3762Z" fill="white"/>
<path d="M75.954 57.4683C75.954 63.2832 75.9604 69.0981 75.9508 74.9129C75.9477 77.1944 75.3511 77.7822 73.0188 77.7854C67.9511 77.7949 62.8867 77.7949 57.8191 77.7791C55.6962 77.7727 55.0584 77.1404 55.0584 75.0686C55.0552 63.28 55.052 51.4914 55.0584 39.7059C55.0584 37.7549 55.6613 37.1067 57.5874 37.0972C62.8645 37.0718 68.1415 37.0718 73.4218 37.0972C75.3606 37.1067 75.9445 37.7359 75.9477 39.7091C75.9572 45.6288 75.9508 51.5486 75.9508 57.4715H75.9572L75.954 57.4683Z" fill="white"/>
</g>
<defs>
<clipPath id="clip0_6528_2318">
<rect width="131" height="107" fill="white"/>
</clipPath>
</defs>
</svg>
