<svg width="276" height="75" viewBox="0 0 276 75" fill="none" xmlns="http://www.w3.org/2000/svg">
<path d="M27.5686 15.2537C27.5686 23.4163 21.8841 28.3725 14.4164 28.3725C6.02775 28.3725 0 22.194 0 14.5338C0 6.87349 6.13659 0.611328 13.9978 0.611328C19.1046 0.611328 23.4162 3.13126 25.6682 6.71443L20.4776 9.68644C19.3725 7.93672 16.9698 6.56373 13.9559 6.56373C9.46024 6.56373 6.10311 9.879 6.10311 14.5672C6.10311 19.2555 9.30953 22.4201 14.4917 22.4201C18.0414 22.4201 20.3688 20.8545 21.3148 18.3011H14.182V12.9599H27.5686V15.2454V15.2537Z" fill="white"/>
<path d="M40.4863 23.2652C42.0519 23.2652 43.383 22.6541 44.1448 21.8169L48.7243 24.4457C46.8574 27.041 44.036 28.3721 40.411 28.3721C33.8893 28.3721 29.8457 23.9852 29.8457 18.3091C29.8457 12.633 33.9647 8.24609 39.9924 8.24609C45.5597 8.24609 49.6787 12.5576 49.6787 18.3091C49.6787 19.1128 49.6033 19.8746 49.4526 20.5946H35.9153C36.6353 22.5788 38.3934 23.2652 40.4863 23.2652ZM43.9941 16.325C43.383 14.1148 41.6668 13.3111 39.9506 13.3111C37.7739 13.3111 36.3255 14.3743 35.7897 16.325H43.9858H43.9941Z" fill="white"/>
<path d="M66.9499 22.1183C66.9499 26.5052 63.1323 28.3721 59.0217 28.3721C55.2042 28.3721 52.3075 26.9238 50.8257 23.8345L55.7818 21.0132C56.2758 22.4615 57.3474 23.2652 59.0217 23.2652C60.3947 23.2652 61.0812 22.8466 61.0812 22.0848C61.0812 19.9835 51.7047 21.0969 51.7047 14.4999C51.7047 10.3391 55.2125 8.24609 59.1808 8.24609C62.27 8.24609 65.016 9.61908 66.615 12.3232L61.7342 14.952C61.1984 13.9641 60.4366 13.2776 59.1808 13.2776C58.1845 13.2776 57.5818 13.6627 57.5818 14.3408C57.5818 16.5175 66.9666 15.0692 66.9666 22.1183H66.9499Z" fill="white"/>
<path d="M76.4772 14.2658V21.0136C76.4772 22.6545 77.8837 22.8051 80.4037 22.6545V27.8366C72.9276 28.5985 70.7593 26.3465 70.7593 21.0136V14.2658H67.7119V8.77387H70.7593V5.14885L76.4772 3.43262V8.77387H80.4037V14.2658H76.4772Z" fill="white"/>
<path d="M83.0742 3.66685C83.0742 1.79992 84.6398 0.234375 86.5067 0.234375C88.3736 0.234375 89.9392 1.79992 89.9392 3.66685C89.9392 5.53378 88.3736 7.09932 86.5067 7.09932C84.6398 7.09932 83.0742 5.53378 83.0742 3.66685ZM83.6435 8.7737H89.3615V27.8365H83.6435V8.7737Z" fill="white"/>
<path d="M92.6016 18.3092C92.6016 12.6247 97.1056 8.24618 102.706 8.24618C108.307 8.24618 112.811 12.633 112.811 18.3092C112.811 23.9853 108.307 28.3722 102.706 28.3722C97.1056 28.3722 92.6016 23.9853 92.6016 18.3092ZM107.093 18.3092C107.093 15.6051 105.185 13.8135 102.706 13.8135C100.228 13.8135 98.3196 15.6051 98.3196 18.3092C98.3196 21.0133 100.228 22.8132 102.706 22.8132C105.185 22.8132 107.093 21.0217 107.093 18.3092ZM104.766 6.10298L109.186 0.761719H102.321L99.274 6.10298H104.766Z" fill="white"/>
<path d="M134.352 16.1325V27.8364H128.634V16.9697C128.634 14.6089 127.144 13.4954 125.319 13.4954C123.218 13.4954 121.778 14.7177 121.778 17.4218V27.8281H116.06V8.76529H121.778V10.5569C122.807 9.14203 124.716 8.22949 127.228 8.22949C131.079 8.22949 134.36 10.9755 134.36 16.1242L134.352 16.1325Z" fill="white"/>
<path d="M167.438 10.2969C167.438 15.3703 163.361 19.4474 158.095 19.4474H154.093V27.836H147.99V1.14648H158.095C163.361 1.14648 167.438 5.22359 167.438 10.2969ZM161.335 10.2969C161.335 8.35467 159.962 6.86448 158.095 6.86448H154.093V13.7294H158.095C159.962 13.7294 161.335 12.2392 161.335 10.2969Z" fill="white"/>
<path d="M188.325 8.77327V27.836H182.607V26.0445C181.578 27.4509 179.669 28.3718 177.157 28.3718C173.306 28.3718 170.024 25.6259 170.024 20.4772V8.77327H175.742V19.64C175.742 22.0008 177.233 23.1059 179.058 23.1059C181.159 23.1059 182.599 21.8836 182.599 19.1795V8.77327H188.317H188.325ZM181.234 6.48774H175.742L178.79 1.14648H185.655L181.234 6.48774Z" fill="white"/>
<path d="M213.031 18.3088C213.031 23.9933 208.912 28.3718 203.922 28.3718C201.369 28.3718 199.502 27.4928 198.237 26.0445V27.836H192.52V1.14648H198.237V10.5648C199.493 9.11651 201.369 8.23747 203.922 8.23747C208.92 8.23747 213.031 12.6243 213.031 18.3005V18.3088ZM207.313 18.3088C207.313 15.4457 205.404 13.6541 202.775 13.6541C200.146 13.6541 198.237 15.4457 198.237 18.3088C198.237 21.172 200.146 22.9636 202.775 22.9636C205.404 22.9636 207.313 21.172 207.313 18.3088Z" fill="white"/>
<path d="M216.262 0H221.98V27.8365H216.262V0Z" fill="white"/>
<path d="M225.605 3.66685C225.605 1.79992 227.171 0.234375 229.038 0.234375C230.905 0.234375 232.47 1.79992 232.47 3.66685C232.47 5.53378 230.905 7.09932 229.038 7.09932C227.171 7.09932 225.605 5.53378 225.605 3.66685ZM226.175 8.7737H231.893V27.8365H226.175V8.7737Z" fill="white"/>
<path d="M235.133 18.3091C235.133 12.6246 239.444 8.24609 245.238 8.24609C248.938 8.24609 252.22 10.1884 253.852 13.1269L248.854 16.0236C248.201 14.6924 246.828 13.8887 245.154 13.8887C242.676 13.8887 240.842 15.6803 240.842 18.3091C240.842 20.9379 242.676 22.7294 245.154 22.7294C246.828 22.7294 248.243 21.9257 248.854 20.5946L253.852 23.4578C252.211 26.4298 248.972 28.3805 245.238 28.3805C239.444 28.3805 235.133 23.9936 235.133 18.3175V18.3091Z" fill="white"/>
<path d="M275.326 8.77352V27.8363H269.608V26.0447C268.352 27.493 266.477 28.3721 263.924 28.3721C258.926 28.3721 254.807 23.9852 254.807 18.3091C254.807 12.633 258.926 8.24609 263.924 8.24609C266.477 8.24609 268.344 9.12514 269.608 10.5735V8.78189H275.326V8.77352ZM269.608 18.3091C269.608 15.4459 267.699 13.6543 265.071 13.6543C262.442 13.6543 260.533 15.4459 260.533 18.3091C260.533 21.1723 262.442 22.9639 265.071 22.9639C267.699 22.9639 269.608 21.1723 269.608 18.3091Z" fill="white"/>
<path d="M7.25008 39.6572V66.3468H1.14697V39.6572H7.25008Z" fill="white"/>
<path d="M29.9381 54.6433V66.3472H24.2201V55.4805C24.2201 53.1196 22.7299 52.0061 20.9048 52.0061C18.8035 52.0061 17.3635 53.2284 17.3635 55.9326V66.3388H11.6455V47.276H17.3635V49.0676C18.3932 47.6528 20.302 46.7402 22.8136 46.7402C26.6647 46.7402 29.9465 49.4862 29.9465 54.6349L29.9381 54.6433Z" fill="white"/>
<path d="M41.0974 52.7766V59.5243C41.0974 61.1652 42.5039 61.3159 45.0238 61.1652V66.3474C37.5477 67.1092 35.3794 64.8572 35.3794 59.5243V52.7766H32.332V47.2846H35.3794V43.6596L41.0974 41.9434V47.2846H45.0238V52.7766H41.0974Z" fill="white"/>
<path d="M57.5733 61.7682C59.1388 61.7682 60.47 61.157 61.2318 60.3198L65.8112 62.9486C63.9443 65.5439 61.1229 66.875 57.4979 66.875C50.9762 66.875 46.9326 62.4882 46.9326 56.812C46.9326 51.1359 51.0516 46.749 57.0793 46.749C62.6466 46.749 66.7656 51.0605 66.7656 56.812C66.7656 57.6157 66.6902 58.3776 66.5395 59.0975H53.0022C53.7222 61.0817 55.4803 61.7682 57.5733 61.7682ZM61.0811 54.8279C60.47 52.6177 58.7537 51.814 57.0375 51.814C54.8608 51.814 53.4124 52.8772 52.8766 54.8279H61.0727H61.0811Z" fill="white"/>
<path d="M69.9971 38.5107H75.7151V66.3472H69.9971V38.5107Z" fill="white"/>
<path d="M79.332 42.1688C79.332 40.3019 80.8976 38.7363 82.7645 38.7363C84.6314 38.7363 86.197 40.3019 86.197 42.1688C86.197 44.0357 84.6314 45.6013 82.7645 45.6013C80.8976 45.6013 79.332 44.0357 79.332 42.1688ZM79.9013 47.2756H85.6193V66.3384H79.9013V47.2756Z" fill="white"/>
<path d="M109.379 47.2847V65.4014C109.379 71.8059 104.381 74.5184 99.3158 74.5184C95.3476 74.5184 92.0323 73.0282 90.2742 69.9055L95.155 67.0842C95.8833 68.4153 96.9884 69.4869 99.5 69.4869C102.171 69.4869 103.812 68.1139 103.812 65.4098V63.6601C102.556 65.2256 100.722 66.1382 98.2442 66.1382C92.8276 66.1382 88.8594 61.7178 88.8594 56.4519C88.8594 51.186 92.8276 46.7656 98.2442 46.7656C100.722 46.7656 102.556 47.6782 103.812 49.2437V47.3014H109.379V47.2847ZM103.812 56.4351C103.812 53.8064 101.903 52.0148 99.1986 52.0148C96.4945 52.0148 94.5857 53.8064 94.5857 56.4351C94.5857 59.0639 96.4945 60.8555 99.1986 60.8555C101.903 60.8555 103.812 59.0639 103.812 56.4351Z" fill="white"/>
<path d="M123.251 61.7682C124.817 61.7682 126.148 61.157 126.91 60.3198L131.489 62.9486C129.622 65.5439 126.801 66.875 123.176 66.875C116.654 66.875 112.61 62.4882 112.61 56.812C112.61 51.1359 116.729 46.749 122.757 46.749C128.324 46.749 132.443 51.0605 132.443 56.812C132.443 57.6157 132.368 58.3776 132.217 59.0975H118.68C119.4 61.0817 121.158 61.7682 123.251 61.7682ZM126.759 54.8279C126.148 52.6177 124.431 51.814 122.715 51.814C120.539 51.814 119.09 52.8772 118.554 54.8279H126.75H126.759Z" fill="white"/>
<path d="M153.984 54.6433V66.3472H148.266V55.4805C148.266 53.1196 146.776 52.0061 144.951 52.0061C142.849 52.0061 141.409 53.2284 141.409 55.9326V66.3388H135.691V47.276H141.409V49.0676C142.439 47.6528 144.348 46.7402 146.859 46.7402C150.711 46.7402 153.992 49.4862 153.992 54.6349L153.984 54.6433Z" fill="white"/>
<path d="M165.144 52.7766V59.5243C165.144 61.1652 166.55 61.3159 169.07 61.1652V66.3474C161.594 67.1092 159.426 64.8572 159.426 59.5243V52.7766H156.378V47.2846H159.426V43.6596L165.144 41.9434V47.2846H169.07V52.7766H165.144Z" fill="white"/>
<path d="M181.611 61.7682C183.177 61.7682 184.508 61.157 185.27 60.3198L189.849 62.9486C187.982 65.5439 185.161 66.875 181.536 66.875C175.014 66.875 170.971 62.4882 170.971 56.812C170.971 51.1359 175.09 46.749 181.117 46.749C186.685 46.749 190.804 51.0605 190.804 56.812C190.804 57.6157 190.728 58.3776 190.578 59.0975H177.04C177.76 61.0817 179.518 61.7682 181.611 61.7682ZM185.119 54.8279C184.508 52.6177 182.792 51.814 181.076 51.814C178.899 51.814 177.451 52.8772 176.915 54.8279H185.111H185.119Z" fill="white"/>
</svg>
