<svg width="317" height="157" viewBox="0 0 317 157" fill="none" xmlns="http://www.w3.org/2000/svg">
<path d="M71.9731 103.845V80.1273C71.9731 76.6446 74.8028 73.8149 78.2855 73.8149H134.411C137.433 73.8149 139.886 76.5357 139.886 79.8845V86.6908C139.886 132.611 111.061 156.228 73.1367 156.228C30.5657 156.228 0 121.459 0 78.3273C0 35.1954 31.1518 0 71.0019 0C96.9296 0 118.789 14.1652 130.208 34.3331L103.895 51.0685C98.2859 41.198 86.0964 33.4708 70.8094 33.4708C47.9792 33.4708 30.9508 52.1401 30.9508 78.5366C30.9508 104.933 47.2007 122.74 73.5135 122.74C91.5046 122.74 103.309 118.228 108.148 103.853" fill="white"/>
<path d="M316.884 39.7919V156.228H287.49C283.999 156.228 281.178 153.398 281.178 149.916V33.4795H310.571C314.062 33.4795 316.884 36.3092 316.884 39.7919Z" fill="white"/>
<path d="M316.884 6.3124V19.766H287.49C283.999 19.766 281.178 16.9363 281.178 13.4536V0H310.571C314.062 0 316.884 2.8297 316.884 6.3124Z" fill="#FFA80D"/>
<path d="M212.755 0H153.616V27.1667C153.616 30.6495 156.445 33.4791 159.928 33.4791H212.755C223.688 33.4791 231.725 42.1859 231.725 53.5633C231.725 64.9407 223.688 73.6474 212.755 73.6474H159.928C156.445 73.6474 153.616 76.4771 153.616 79.9598V156.228H189.322V107.127H212.755C243.555 107.127 267.431 83.25 267.431 53.5633C267.431 23.8766 243.555 0 212.755 0Z" fill="white"/>
</svg>
