<svg width="428" height="128" viewBox="0 0 428 128" fill="none" xmlns="http://www.w3.org/2000/svg">
<g clip-path="url(#clip0_2515_310)">
<path d="M271.169 54.3743C271.169 59.5449 267.574 62.6845 262.852 62.6845C257.548 62.6845 253.736 58.7707 253.736 53.9182C253.736 49.0657 257.617 45.0989 262.588 45.0989C265.817 45.0989 268.543 46.6952 269.967 48.965L266.685 50.8476C265.986 49.7392 264.467 48.8695 262.561 48.8695C259.718 48.8695 257.595 50.9696 257.595 53.9394C257.595 56.9092 259.623 58.9139 262.9 58.9139C265.144 58.9139 266.616 57.9221 267.214 56.3047H262.704V52.9212H271.169V54.369V54.3743Z" fill="white"/>
<path d="M279.337 59.4496C280.327 59.4496 281.169 59.0624 281.651 58.5321L284.546 60.1973C283.366 61.8414 281.582 62.6846 279.29 62.6846C275.166 62.6846 272.609 59.9057 272.609 56.3101C272.609 52.7145 275.213 49.9355 279.025 49.9355C282.545 49.9355 285.15 52.6667 285.15 56.3101C285.15 56.8192 285.102 57.3018 285.007 57.7578H276.447C276.902 59.0147 278.014 59.4496 279.337 59.4496ZM281.555 55.0532C281.169 53.6531 280.084 53.144 278.998 53.144C277.622 53.144 276.706 53.8175 276.367 55.0532H281.55H281.555Z" fill="white"/>
<path d="M296.071 58.723C296.071 61.5019 293.657 62.6846 291.058 62.6846C288.644 62.6846 286.812 61.7671 285.875 59.8102L289.009 58.023C289.321 58.9405 289.999 59.4496 291.058 59.4496C291.926 59.4496 292.36 59.1844 292.36 58.7018C292.36 57.3707 286.431 58.076 286.431 53.8971C286.431 51.2614 288.649 49.9355 291.158 49.9355C293.112 49.9355 294.848 50.8053 295.859 52.5182L292.773 54.1835C292.434 53.5577 291.952 53.1228 291.158 53.1228C290.528 53.1228 290.147 53.3668 290.147 53.7963C290.147 55.1752 296.081 54.2577 296.081 58.723H296.071Z" fill="white"/>
<path d="M302.095 53.7485V58.0229C302.095 59.0624 302.984 59.1578 304.578 59.0624V62.3451C299.85 62.8277 298.479 61.4011 298.479 58.0229V53.7485H296.552V50.2696H298.479V47.9733L302.095 46.8861V50.2696H304.578V53.7485H302.095Z" fill="white"/>
<path d="M306.267 47.0346C306.267 45.8519 307.257 44.8602 308.437 44.8602C309.618 44.8602 310.608 45.8519 310.608 47.0346C310.608 48.2172 309.618 49.2089 308.437 49.2089C307.257 49.2089 306.267 48.2172 306.267 47.0346ZM306.627 50.2696H310.242V62.3451H306.627V50.2696Z" fill="white"/>
<path d="M312.291 56.31C312.291 52.7091 315.139 49.9354 318.681 49.9354C322.222 49.9354 325.07 52.7144 325.07 56.31C325.07 59.9056 322.222 62.6845 318.681 62.6845C315.139 62.6845 312.291 59.9056 312.291 56.31ZM321.455 56.31C321.455 54.597 320.248 53.4621 318.681 53.4621C317.114 53.4621 315.907 54.597 315.907 56.31C315.907 58.0229 317.114 59.1631 318.681 59.1631C320.248 59.1631 321.455 58.0282 321.455 56.31ZM319.983 48.5778L322.778 45.1943H318.437L316.51 48.5778H319.983Z" fill="white"/>
<path d="M338.691 54.9312V62.3452H335.075V55.4615C335.075 53.966 334.133 53.2607 332.979 53.2607C331.65 53.2607 330.74 54.035 330.74 55.7479V62.3399H327.124V50.2643H330.74V51.3992C331.391 50.503 332.598 49.9249 334.186 49.9249C336.621 49.9249 338.696 51.6644 338.696 54.9259L338.691 54.9312Z" fill="white"/>
<path d="M359.612 51.2348C359.612 54.4486 357.034 57.0313 353.704 57.0313H351.174V62.3451H347.314V45.4384H353.704C357.034 45.4384 359.612 48.021 359.612 51.2348ZM355.753 51.2348C355.753 50.0045 354.885 49.0605 353.704 49.0605H351.174V53.4091H353.704C354.885 53.4091 355.753 52.4652 355.753 51.2348Z" fill="white"/>
<path d="M372.82 50.2696V62.3451H369.204V61.2102C368.553 62.1012 367.346 62.6845 365.758 62.6845C363.323 62.6845 361.248 60.9451 361.248 57.6836V50.2696H364.863V57.1532C364.863 58.6488 365.805 59.3488 366.96 59.3488C368.288 59.3488 369.199 58.5745 369.199 56.8616V50.2696H372.814H372.82ZM368.336 48.8218H364.863L366.79 45.4384H371.131L368.336 48.8218Z" fill="white"/>
<path d="M388.442 56.31C388.442 59.9109 385.837 62.6845 382.682 62.6845C381.068 62.6845 379.887 62.1277 379.088 61.2102V62.3451H375.472V45.4384H379.088V51.4045C379.882 50.4871 381.068 49.9302 382.682 49.9302C385.843 49.9302 388.442 52.7091 388.442 56.3047V56.31ZM384.826 56.31C384.826 54.4963 383.619 53.3614 381.957 53.3614C380.295 53.3614 379.088 54.4963 379.088 56.31C379.088 58.1237 380.295 59.2586 381.957 59.2586C383.619 59.2586 384.826 58.1237 384.826 56.31Z" fill="white"/>
<path d="M390.485 44.7118H394.101V62.3451H390.485V44.7118Z" fill="white"/>
<path d="M396.393 47.0346C396.393 45.8519 397.383 44.8602 398.564 44.8602C399.744 44.8602 400.734 45.8519 400.734 47.0346C400.734 48.2172 399.744 49.2089 398.564 49.2089C397.383 49.2089 396.393 48.2172 396.393 47.0346ZM396.753 50.2696H400.369V62.3451H396.753V50.2696Z" fill="white"/>
<path d="M402.417 56.3101C402.417 52.7091 405.144 49.9355 408.807 49.9355C411.147 49.9355 413.222 51.1659 414.254 53.0273L411.094 54.8623C410.681 54.0191 409.813 53.5099 408.754 53.5099C407.187 53.5099 406.028 54.6448 406.028 56.3101C406.028 57.9753 407.187 59.1102 408.754 59.1102C409.813 59.1102 410.708 58.6011 411.094 57.7579L414.254 59.5716C413.217 61.4542 411.168 62.6899 408.807 62.6899C405.144 62.6899 402.417 59.911 402.417 56.3154V56.3101Z" fill="white"/>
<path d="M427.833 50.2697V62.3452H424.217V61.2103C423.423 62.1277 422.237 62.6846 420.623 62.6846C417.462 62.6846 414.858 59.9057 414.858 56.3101C414.858 52.7145 417.462 49.9355 420.623 49.9355C422.237 49.9355 423.418 50.4924 424.217 51.4099V50.275H427.833V50.2697ZM424.217 56.3101C424.217 54.4963 423.01 53.3614 421.348 53.3614C419.686 53.3614 418.479 54.4963 418.479 56.3101C418.479 58.1238 419.686 59.2587 421.348 59.2587C423.01 59.2587 424.217 58.1238 424.217 56.3101Z" fill="white"/>
<path d="M258.321 69.8334V86.7402H254.461V69.8334H258.321Z" fill="white"/>
<path d="M272.667 79.3261V86.74H269.051V79.8564C269.051 78.3609 268.109 77.6556 266.955 77.6556C265.626 77.6556 264.716 78.4298 264.716 80.1428V86.7347H261.1V74.6592H264.716V75.7941C265.367 74.8979 266.574 74.3198 268.162 74.3198C270.597 74.3198 272.672 76.0593 272.672 79.3208L272.667 79.3261Z" fill="white"/>
<path d="M279.723 78.1435V82.418C279.723 83.4574 280.613 83.5529 282.206 83.4574V86.7401C277.479 87.2227 276.108 85.7961 276.108 82.418V78.1435H274.181V74.6646H276.108V72.3683L279.723 71.2811V74.6646H282.206V78.1435H279.723Z" fill="white"/>
<path d="M290.141 83.8392C291.131 83.8392 291.973 83.4521 292.455 82.9218L295.351 84.587C294.17 86.231 292.386 87.0742 290.094 87.0742C285.97 87.0742 283.413 84.2953 283.413 80.6997C283.413 77.1041 286.018 74.3252 289.829 74.3252C293.35 74.3252 295.954 77.0564 295.954 80.6997C295.954 81.2088 295.906 81.6914 295.811 82.1475H287.251C287.706 83.4044 288.818 83.8392 290.141 83.8392ZM292.36 79.4428C291.973 78.0428 290.888 77.5337 289.803 77.5337C288.426 77.5337 287.51 78.2072 287.172 79.4428H292.354H292.36Z" fill="white"/>
<path d="M297.998 69.1068H301.613V86.7401H297.998V69.1068Z" fill="white"/>
<path d="M303.9 71.4243C303.9 70.2417 304.89 69.25 306.071 69.25C307.251 69.25 308.241 70.2417 308.241 71.4243C308.241 72.607 307.251 73.5987 306.071 73.5987C304.89 73.5987 303.9 72.607 303.9 71.4243ZM304.26 74.6593H307.876V86.7348H304.26V74.6593Z" fill="white"/>
<path d="M322.899 74.6646V86.1409C322.899 90.1979 319.739 91.9161 316.536 91.9161C314.027 91.9161 311.931 90.9721 310.819 88.994L313.905 87.2068C314.366 88.05 315.065 88.7289 316.653 88.7289C318.341 88.7289 319.379 87.8591 319.379 86.1462V85.0378C318.585 86.0295 317.426 86.6076 315.859 86.6076C312.434 86.6076 309.924 83.8074 309.924 80.4717C309.924 77.1359 312.434 74.3358 315.859 74.3358C317.426 74.3358 318.585 74.9139 319.379 75.9056V74.6752H322.899V74.6646ZM319.379 80.4611C319.379 78.7959 318.172 77.661 316.462 77.661C314.752 77.661 313.545 78.7959 313.545 80.4611C313.545 82.1263 314.752 83.2612 316.462 83.2612C318.172 83.2612 319.379 82.1263 319.379 80.4611Z" fill="white"/>
<path d="M331.671 83.8392C332.661 83.8392 333.503 83.4521 333.985 82.9218L336.88 84.587C335.7 86.231 333.916 87.0742 331.624 87.0742C327.5 87.0742 324.943 84.2953 324.943 80.6997C324.943 77.1041 327.547 74.3252 331.359 74.3252C334.879 74.3252 337.484 77.0564 337.484 80.6997C337.484 81.2088 337.436 81.6914 337.341 82.1475H328.781C329.236 83.4044 330.348 83.8392 331.671 83.8392ZM333.889 79.4428C333.503 78.0428 332.418 77.5337 331.332 77.5337C329.956 77.5337 329.04 78.2072 328.701 79.4428H333.884H333.889Z" fill="white"/>
<path d="M351.105 79.3261V86.74H347.489V79.8564C347.489 78.3609 346.547 77.6556 345.393 77.6556C344.064 77.6556 343.154 78.4298 343.154 80.1428V86.7347H339.538V74.6592H343.154V75.7941C343.805 74.8979 345.012 74.3198 346.6 74.3198C349.035 74.3198 351.11 76.0593 351.11 79.3208L351.105 79.3261Z" fill="white"/>
<path d="M358.161 78.1435V82.418C358.161 83.4574 359.051 83.5529 360.644 83.4574V86.7401C355.917 87.2227 354.546 85.7961 354.546 82.418V78.1435H352.619V74.6646H354.546V72.3683L358.161 71.2811V74.6646H360.644V78.1435H358.161Z" fill="white"/>
<path d="M368.574 83.8392C369.564 83.8392 370.406 83.4521 370.887 82.9218L373.783 84.587C372.603 86.231 370.819 87.0742 368.526 87.0742C364.403 87.0742 361.846 84.2953 361.846 80.6997C361.846 77.1041 364.45 74.3252 368.262 74.3252C371.782 74.3252 374.387 77.0564 374.387 80.6997C374.387 81.2088 374.339 81.6914 374.244 82.1475H365.684C366.139 83.4044 367.251 83.8392 368.574 83.8392ZM370.792 79.4428C370.406 78.0428 369.32 77.5337 368.235 77.5337C366.859 77.5337 365.943 78.2072 365.604 79.4428H370.787H370.792Z" fill="white"/>
<path d="M234.922 0V126.806C234.922 126.933 234.822 127.034 234.695 127.034H234.208V0.22804" fill="#FFA80D"/>
<path d="M45.5106 79.761V64.7368C45.5106 62.5307 47.2999 60.7382 49.5021 60.7382H84.9916C86.9027 60.7382 88.4537 62.4617 88.4537 64.583V68.8946C88.4537 97.983 70.2273 112.943 46.2464 112.943C19.3276 112.943 0 90.919 0 63.5966C0 36.2743 19.6981 13.9794 44.8965 13.9794C61.2914 13.9794 75.1134 22.9525 82.3341 35.728L65.6958 46.3292C62.149 40.0767 54.4412 35.1818 44.7748 35.1818C30.3386 35.1818 19.5711 47.008 19.5711 63.7292C19.5711 80.4504 29.8463 91.7304 46.4847 91.7304C57.861 91.7304 65.3252 88.872 68.385 79.7663" fill="white"/>
<path d="M200.375 39.1858V112.943H181.788C179.581 112.943 177.797 111.151 177.797 108.945V35.1871H196.383C198.591 35.1871 200.375 36.9796 200.375 39.1858Z" fill="white"/>
<path d="M200.375 17.978V26.5004H181.788C179.581 26.5004 177.797 24.7079 177.797 22.5017V13.9794H196.383C198.591 13.9794 200.375 15.7719 200.375 17.978Z" fill="#FFA80D"/>
<path d="M234.202 0.22804C234.202 0.100762 234.303 0 234.43 0H234.917" fill="#FFA80D"/>
<path d="M134.531 13.9794H97.1357V31.1884C97.1357 33.3946 98.925 35.1871 101.127 35.1871H134.531C141.445 35.1871 146.527 40.7025 146.527 47.9096C146.527 55.1167 141.445 60.6321 134.531 60.6321H101.127C98.925 60.6321 97.1357 62.4246 97.1357 64.6308V112.943H119.714V81.8398H134.531C154.007 81.8398 169.105 66.715 169.105 47.9096C169.105 29.1043 154.007 13.9794 134.531 13.9794Z" fill="white"/>
</g>
<defs>
<clipPath id="clip0_2515_310">
<rect width="427.833" height="127.034" fill="white"/>
</clipPath>
</defs>
</svg>
