<svg width="101" height="101" viewBox="0 0 101 101" fill="none" xmlns="http://www.w3.org/2000/svg">
<g clip-path="url(#clip0_6741_1224)">
<path d="M0.546421 70.1459L0.525391 51.6114H40.6789C45.4457 51.5904 49.3257 55.4424 49.3433 60.2127L49.3643 78.7788L9.21082 78.7508C4.444 78.7683 0.563946 74.9163 0.546421 70.1459Z" stroke="#FFA80D" stroke-miterlimit="10"/>
<path d="M30.8262 0.546421L49.3607 0.525391V40.6789C49.3818 45.4457 45.5298 49.3257 40.7594 49.3433L22.1934 49.3643L22.2214 9.21082C22.2039 4.444 26.0559 0.563946 30.8262 0.546421Z" stroke="#FFA80D" stroke-miterlimit="10"/>
<path d="M70.1459 100.454L51.6114 100.475V60.3212C51.5904 55.5544 55.4424 51.6743 60.2127 51.6568L78.7788 51.6357L78.7508 91.7892C78.7683 96.556 74.9163 100.436 70.1459 100.454Z" stroke="#FFA80D" stroke-miterlimit="10"/>
<path d="M100.425 30.8262L100.446 49.3607H60.2929C55.526 49.3818 51.646 45.5298 51.6285 40.7594L51.6074 22.1934L91.7609 22.2214C96.5277 22.2039 100.408 26.0559 100.425 30.8262Z" stroke="#FFA80D" stroke-miterlimit="10"/>
</g>
<defs>
<clipPath id="clip0_6741_1224">
<rect width="100.973" height="101.001" fill="white"/>
</clipPath>
</defs>
</svg>
