<svg width="48" height="48" viewBox="0 0 48 48" fill="none" xmlns="http://www.w3.org/2000/svg">
<path d="M31.5 10.5C34.8137 10.5 37.5 13.1863 37.5 16.5M43.5 16.5C43.5 23.1274 38.1274 28.5 31.5 28.5C30.7985 28.5 30.1111 28.4398 29.4426 28.3243C28.3166 28.1298 27.124 28.376 26.316 29.184L21 34.5H16.5V39H12V43.5H4.5V37.864C4.5 36.6705 4.97411 35.5259 5.81802 34.682L18.816 21.684C19.624 20.876 19.8702 19.6834 19.6757 18.5574C19.5602 17.8889 19.5 17.2015 19.5 16.5C19.5 9.87258 24.8726 4.5 31.5 4.5C38.1274 4.5 43.5 9.87258 43.5 16.5Z" stroke="#FFA80D" stroke-width="1.5" stroke-linecap="round" stroke-linejoin="round"/>
</svg>
