<svg width="255" height="94" viewBox="0 0 255 94" fill="none" xmlns="http://www.w3.org/2000/svg">
<g filter="url(#filter0_d_4538_761)">
<mask id="path-1-inside-1_4538_761" fill="white">
<path fill-rule="evenodd" clip-rule="evenodd" d="M65.2128 53.9231C59.345 60.7074 50.6738 65 41 65C23.3269 65 9 50.6731 9 33C9 15.3269 23.3269 1 41 1C51.2465 1 60.3682 5.8159 66.2251 13.3077H204.231C220.799 13.3077 234.231 26.7392 234.231 43.3077V53.9231H65.2128Z"/>
</mask>
<path fill-rule="evenodd" clip-rule="evenodd" d="M65.2128 53.9231C59.345 60.7074 50.6738 65 41 65C23.3269 65 9 50.6731 9 33C9 15.3269 23.3269 1 41 1C51.2465 1 60.3682 5.8159 66.2251 13.3077H204.231C220.799 13.3077 234.231 26.7392 234.231 43.3077V53.9231H65.2128Z" fill="#D9D9D9"/>
<path d="M65.2128 53.9231V52.9231H64.7555L64.4564 53.2689L65.2128 53.9231ZM66.2251 13.3077L65.4372 13.9236L65.7375 14.3077H66.2251V13.3077ZM234.231 53.9231V54.9231H235.231V53.9231H234.231ZM64.4564 53.2689C58.7705 59.843 50.3713 64 41 64V66C50.9763 66 59.9195 61.5718 65.9691 54.5772L64.4564 53.2689ZM41 64C23.8792 64 10 50.1208 10 33H8C8 51.2254 22.7746 66 41 66V64ZM10 33C10 15.8792 23.8792 2 41 2V0C22.7746 0 8 14.7746 8 33H10ZM41 2C50.9258 2 59.7617 6.66379 65.4372 13.9236L67.0129 12.6918C60.9747 4.96802 51.5672 0 41 0V2ZM66.2251 14.3077H204.231V12.3077H66.2251V14.3077ZM204.231 14.3077C220.247 14.3077 233.231 27.2914 233.231 43.3077H235.231C235.231 26.1869 221.352 12.3077 204.231 12.3077V14.3077ZM233.231 43.3077V53.9231H235.231V43.3077H233.231ZM234.231 52.9231H65.2128V54.9231H234.231V52.9231Z" fill="#D9D9D9" mask="url(#path-1-inside-1_4538_761)"/>
</g>
<path d="M87.6719 26.7812V41H85.7871V26.7812H87.6719ZM106.037 26.7812V41H104.143L96.9844 30.0332V41H95.0996V26.7812H96.9844L104.172 37.7773V26.7812H106.037ZM123.885 33.9199V39.125C123.709 39.3854 123.429 39.6784 123.045 40.0039C122.661 40.3229 122.13 40.6029 121.453 40.8438C120.783 41.0781 119.917 41.1953 118.855 41.1953C117.99 41.1953 117.192 41.0456 116.463 40.7461C115.74 40.4401 115.112 39.9974 114.578 39.418C114.051 38.832 113.641 38.1224 113.348 37.2891C113.061 36.4492 112.918 35.4987 112.918 34.4375V33.334C112.918 32.2728 113.042 31.3255 113.289 30.4922C113.543 29.6589 113.914 28.9525 114.402 28.373C114.891 27.7871 115.49 27.3444 116.199 27.0449C116.909 26.7389 117.723 26.5859 118.641 26.5859C119.728 26.5859 120.636 26.7747 121.365 27.1523C122.101 27.5234 122.674 28.0378 123.084 28.6953C123.501 29.3529 123.768 30.1016 123.885 30.9414H122C121.915 30.4271 121.746 29.9583 121.492 29.5352C121.245 29.112 120.89 28.7734 120.428 28.5195C119.965 28.2591 119.37 28.1289 118.641 28.1289C117.983 28.1289 117.413 28.2493 116.932 28.4902C116.45 28.7311 116.053 29.0762 115.74 29.5254C115.428 29.9746 115.193 30.5182 115.037 31.1562C114.887 31.7943 114.812 32.5137 114.812 33.3145V34.4375C114.812 35.2578 114.907 35.9902 115.096 36.6348C115.291 37.2793 115.568 37.8294 115.926 38.2852C116.284 38.7344 116.71 39.0762 117.205 39.3105C117.706 39.5449 118.26 39.6621 118.865 39.6621C119.536 39.6621 120.079 39.6068 120.496 39.4961C120.913 39.3789 121.238 39.2422 121.473 39.0859C121.707 38.9232 121.886 38.7702 122.01 38.627V35.4434H118.719V33.9199H123.885ZM131.01 26.7812H135.717C136.785 26.7812 137.686 26.944 138.422 27.2695C139.164 27.5951 139.727 28.0768 140.111 28.7148C140.502 29.3464 140.697 30.1243 140.697 31.0488C140.697 31.6999 140.564 32.2956 140.297 32.8359C140.036 33.3698 139.659 33.8255 139.164 34.2031C138.676 34.5742 138.09 34.8509 137.406 35.0332L136.879 35.2383H132.455L132.436 33.7051H135.775C136.452 33.7051 137.016 33.5879 137.465 33.3535C137.914 33.1126 138.253 32.7904 138.48 32.3867C138.708 31.9831 138.822 31.5371 138.822 31.0488C138.822 30.502 138.715 30.0234 138.5 29.6133C138.285 29.2031 137.947 28.8874 137.484 28.666C137.029 28.4382 136.439 28.3242 135.717 28.3242H132.895V41H131.01V26.7812ZM139.32 41L135.863 34.5547L137.826 34.5449L141.332 40.8828V41H139.32ZM156.367 39.4668V41H148.838V39.4668H156.367ZM149.219 26.7812V41H147.334V26.7812H149.219ZM155.371 32.8945V34.4277H148.838V32.8945H155.371ZM156.27 26.7812V28.3242H148.838V26.7812H156.27ZM170.279 37.4062C170.279 37.0742 170.227 36.7812 170.123 36.5273C170.025 36.2669 169.85 36.0326 169.596 35.8242C169.348 35.6159 169.003 35.4173 168.561 35.2285C168.124 35.0397 167.571 34.8477 166.9 34.6523C166.197 34.444 165.562 34.2129 164.996 33.959C164.43 33.6986 163.945 33.4023 163.541 33.0703C163.137 32.7383 162.828 32.3574 162.613 31.9277C162.398 31.498 162.291 31.0065 162.291 30.4531C162.291 29.8997 162.405 29.3887 162.633 28.9199C162.861 28.4512 163.186 28.0443 163.609 27.6992C164.039 27.3477 164.55 27.0742 165.143 26.8789C165.735 26.6836 166.396 26.5859 167.125 26.5859C168.193 26.5859 169.098 26.791 169.84 27.2012C170.589 27.6048 171.158 28.1354 171.549 28.793C171.939 29.444 172.135 30.1406 172.135 30.8828H170.26C170.26 30.349 170.146 29.877 169.918 29.4668C169.69 29.0501 169.345 28.7246 168.883 28.4902C168.421 28.2493 167.835 28.1289 167.125 28.1289C166.454 28.1289 165.901 28.2298 165.465 28.4316C165.029 28.6335 164.703 28.9069 164.488 29.252C164.28 29.597 164.176 29.9909 164.176 30.4336C164.176 30.7331 164.238 31.0065 164.361 31.2539C164.492 31.4948 164.69 31.7194 164.957 31.9277C165.23 32.1361 165.576 32.3281 165.992 32.5039C166.415 32.6797 166.92 32.849 167.506 33.0117C168.313 33.2396 169.01 33.4935 169.596 33.7734C170.182 34.0534 170.663 34.3691 171.041 34.7207C171.425 35.0658 171.708 35.4596 171.891 35.9023C172.079 36.3385 172.174 36.8333 172.174 37.3867C172.174 37.9661 172.057 38.4902 171.822 38.959C171.588 39.4277 171.253 39.8281 170.816 40.1602C170.38 40.4922 169.856 40.7493 169.244 40.9316C168.639 41.1074 167.962 41.1953 167.213 41.1953C166.555 41.1953 165.908 41.1042 165.27 40.9219C164.638 40.7396 164.062 40.4661 163.541 40.1016C163.027 39.737 162.613 39.2878 162.301 38.7539C161.995 38.2135 161.842 37.5885 161.842 36.8789H163.717C163.717 37.3672 163.811 37.7871 164 38.1387C164.189 38.4837 164.446 38.7702 164.771 38.998C165.104 39.2259 165.478 39.3952 165.895 39.5059C166.318 39.61 166.757 39.6621 167.213 39.6621C167.87 39.6621 168.427 39.571 168.883 39.3887C169.339 39.2064 169.684 38.946 169.918 38.6074C170.159 38.2689 170.279 37.8685 170.279 37.4062ZM183.84 28.041L179.133 41H177.209L182.629 26.7812H183.869L183.84 28.041ZM187.785 41L183.068 28.041L183.039 26.7812H184.279L189.719 41H187.785ZM187.541 35.7363V37.2793H179.553V35.7363H187.541ZM195.623 26.7812H200.33C201.398 26.7812 202.299 26.944 203.035 27.2695C203.777 27.5951 204.34 28.0768 204.725 28.7148C205.115 29.3464 205.311 30.1243 205.311 31.0488C205.311 31.6999 205.177 32.2956 204.91 32.8359C204.65 33.3698 204.272 33.8255 203.777 34.2031C203.289 34.5742 202.703 34.8509 202.02 35.0332L201.492 35.2383H197.068L197.049 33.7051H200.389C201.066 33.7051 201.629 33.5879 202.078 33.3535C202.527 33.1126 202.866 32.7904 203.094 32.3867C203.322 31.9831 203.436 31.5371 203.436 31.0488C203.436 30.502 203.328 30.0234 203.113 29.6133C202.898 29.2031 202.56 28.8874 202.098 28.666C201.642 28.4382 201.053 28.3242 200.33 28.3242H197.508V41H195.623V26.7812ZM203.934 41L200.477 34.5547L202.439 34.5449L205.945 40.8828V41H203.934Z" fill="#2D3542"/>
<path d="M53.96 47.5704C50.9929 43.6545 46.2919 41.125 41 41.125C35.7081 41.125 31.0071 43.6545 28.04 47.5704M53.96 47.5704C57.9726 43.9987 60.5 38.7945 60.5 33C60.5 22.2304 51.7696 13.5 41 13.5C30.2304 13.5 21.5 22.2304 21.5 33C21.5 38.7945 24.0274 43.9987 28.04 47.5704M53.96 47.5704C50.5149 50.6369 45.975 52.5 41 52.5C36.025 52.5 31.4851 50.6369 28.04 47.5704M47.5 28.125C47.5 31.7149 44.5899 34.625 41 34.625C37.4101 34.625 34.5 31.7149 34.5 28.125C34.5 24.5351 37.4101 21.625 41 21.625C44.5899 21.625 47.5 24.5351 47.5 28.125Z" stroke="#2D3542" stroke-width="1.5" stroke-linecap="round" stroke-linejoin="round"/>
<defs>
<filter id="filter0_d_4538_761" x="0.5" y="0.5" width="254.23" height="93" filterUnits="userSpaceOnUse" color-interpolation-filters="sRGB">
<feFlood flood-opacity="0" result="BackgroundImageFix"/>
<feColorMatrix in="SourceAlpha" type="matrix" values="0 0 0 0 0 0 0 0 0 0 0 0 0 0 0 0 0 0 127 0" result="hardAlpha"/>
<feOffset dx="6" dy="14"/>
<feGaussianBlur stdDeviation="7.25"/>
<feComposite in2="hardAlpha" operator="out"/>
<feColorMatrix type="matrix" values="0 0 0 0 0 0 0 0 0 0 0 0 0 0 0 0 0 0 0.25 0"/>
<feBlend mode="normal" in2="BackgroundImageFix" result="effect1_dropShadow_4538_761"/>
<feBlend mode="normal" in="SourceGraphic" in2="effect1_dropShadow_4538_761" result="shape"/>
</filter>
</defs>
</svg>
