<svg width="33" height="33" viewBox="0 0 33 33" fill="none" xmlns="http://www.w3.org/2000/svg">
<path d="M29.9062 9.28125V23.7188C29.9062 25.4274 28.5211 26.8125 26.8125 26.8125H6.1875C4.47887 26.8125 3.09375 25.4274 3.09375 23.7188V9.28125M29.9062 9.28125C29.9062 7.57262 28.5211 6.1875 26.8125 6.1875H6.1875C4.47887 6.1875 3.09375 7.57262 3.09375 9.28125M29.9062 9.28125V9.61498C29.9062 10.6893 29.3489 11.6867 28.4339 12.2498L18.1214 18.5959C17.1271 19.2079 15.8729 19.2079 14.8786 18.596L4.56607 12.2498C3.6511 11.6867 3.09375 10.6893 3.09375 9.61498V9.28125" stroke="white" stroke-width="1.5" stroke-linecap="round" stroke-linejoin="round"/>
</svg>
