<svg width="117" height="126" viewBox="0 0 117 126" fill="none" xmlns="http://www.w3.org/2000/svg">
<g clip-path="url(#clip0_6530_2353)">
<path d="M20.9893 100.985C19.1981 100.985 17.4622 100.985 15.7194 100.985C14.8895 100.985 14.0665 101.027 13.2366 100.978C12.2476 100.916 11.722 100.238 11.4454 99.3807C10.9405 97.8177 11.0789 96.2201 11.2033 94.6157C11.314 93.191 11.2863 91.7525 11.2863 90.3209C11.2863 82.7826 11.2863 75.2374 11.2448 67.6992C11.2448 66.6549 11.0374 65.6106 10.9198 64.5248C8.89345 64.5248 6.93626 64.5801 4.97907 64.504C3.88637 64.4625 2.79366 64.2205 1.70787 64.0199C1.07161 63.9023 0.739652 63.5151 0.808811 62.7958C0.995539 60.8455 1.12694 58.8953 1.34133 56.9519C1.37591 56.6199 1.69404 56.288 1.95684 56.0252C5.48393 52.4843 9.02485 48.9503 12.5589 45.4163C27.1375 30.8307 41.7092 16.2521 56.2947 1.69421C56.8895 1.10636 57.5603 0.587674 58.2381 0.0966485C58.4041 -0.0209211 58.819 -0.0278369 58.9712 0.0966485C59.7527 0.753655 60.5065 1.43832 61.2257 2.15757C71.8831 12.7942 82.5266 23.4377 93.177 34.0812C97.1398 38.044 101.089 42.0275 105.065 45.9764C108.06 48.9503 111.096 51.8826 114.104 54.8495C115.204 55.9353 116.041 57.1801 116.456 58.7016C116.961 60.5551 116.649 62.367 116.186 64.1582C116.138 64.338 115.688 64.5248 115.418 64.5248C112.631 64.5524 109.837 64.5386 107.05 64.5386C106.746 64.5386 106.449 64.5386 106.075 64.5386C106.054 64.8152 106.034 65.0573 106.027 65.2924C106.02 65.6521 106.027 66.0117 106.027 66.3713C105.999 76.2886 105.971 86.206 105.951 96.1164C105.951 96.9186 105.964 97.7209 105.951 98.5231C105.93 99.9478 104.996 100.916 103.558 100.971C102.672 101.006 101.787 100.978 100.902 100.978C96.5381 100.978 92.1742 100.909 87.8103 100.992C85.8185 101.027 84.2625 102.251 83.4256 104.547C81.9595 108.537 80.2305 112.396 78.1073 116.082C76.8971 118.178 75.2027 119.699 72.955 120.64C70.493 121.67 68.0932 122.839 65.6035 123.794C63.2452 124.693 60.873 125.557 58.328 125.889C55.942 126.2 53.7497 125.868 51.5781 124.859C47.5531 122.991 43.4727 121.221 39.4339 119.374C36.8473 118.192 34.2954 116.947 31.7227 115.737C29.0255 114.464 26.2937 113.254 23.6311 111.912C22.5661 111.373 21.5011 110.695 20.6781 109.844C19.371 108.496 19.6407 106.725 19.9657 105.072C20.2285 103.717 20.6504 102.396 21.0239 100.985H20.9893ZM92.5546 73.5361C92.4854 73.2802 92.4439 73.1212 92.4024 72.969C92.0843 71.5859 90.9293 71.0741 89.8159 70.5623C85.9983 68.8057 82.1531 67.1044 78.3287 65.3616C75.1543 63.9162 71.9937 62.4293 68.8194 60.97C65.7418 59.5523 62.6435 58.1622 59.5728 56.7306C57.2353 55.6448 54.9461 54.4553 52.5878 53.4248C50.1465 52.3667 48.9224 52.6917 47.7951 55.1054C46.1699 58.5771 44.5862 62.0627 42.9886 65.5483C41.0314 69.8085 39.0812 74.0686 37.124 78.3219C35.8238 81.1436 34.5029 83.9583 33.2027 86.78C31.2732 90.9572 29.3367 95.1274 27.4279 99.3115C26.3975 101.573 25.45 103.862 24.4334 106.124C24.1222 106.815 24.1775 107.203 24.9728 107.528C26.6465 108.212 28.2786 109.008 29.9177 109.768C35.8999 112.535 41.8821 115.294 47.8505 118.067C49.6901 118.925 51.4951 119.852 53.3347 120.702C54.3237 121.159 55.4648 121.657 56.4192 120.972C57.2215 120.398 57.8508 119.478 58.3211 118.586C59.2132 116.885 59.8633 115.059 60.7485 113.351C61.7168 111.477 62.9132 110.937 64.9603 111.774C66.7584 112.507 68.4943 113.399 70.2786 114.16C70.901 114.423 71.6134 114.692 72.2565 114.637C73.6674 114.519 74.3313 113.365 74.8776 112.237C75.7352 110.46 76.5098 108.634 77.3259 106.829C78.5707 104.049 79.8017 101.262 81.0742 98.4955C82.1531 96.1579 83.2873 93.8549 84.38 91.5312C85.3137 89.5463 86.2127 87.5338 87.1464 85.549C88.737 82.1602 90.3622 78.7853 91.946 75.3896C92.2295 74.781 92.3678 74.1101 92.5546 73.5361Z" fill="white"/>
<path d="M21.8401 28.5759C21.598 27.4556 21.2592 26.5565 21.2384 25.6505C21.1692 22.5591 21.2384 19.4677 21.2038 16.3764C21.1831 13.9904 21.0793 11.5975 21.0586 9.21153C21.0586 8.54069 21.1485 7.85602 21.2799 7.1921C21.4459 6.34145 22.3034 5.67753 23.2924 5.67061C28.4793 5.64986 33.6662 5.6637 38.8669 5.6637C39.7798 8.65135 39.2819 11.1895 36.9581 13.3956C33.4311 16.7498 29.987 20.1939 26.5429 23.6311C24.9937 25.1802 23.5137 26.8055 21.8332 28.569L21.8401 28.5759Z" fill="white"/>
<path d="M80.5007 89.0344C79.7884 90.4107 79.1037 91.7247 78.4052 93.0664C77.0359 92.4578 75.7426 91.9045 74.4701 91.3097C70.4589 89.4563 66.4477 87.589 62.4434 85.7217C59.3935 84.2971 56.3436 82.8724 53.2868 81.4408C52.4708 81.0604 51.6547 80.687 50.8179 80.2997C51.3919 79.0548 51.8967 77.9621 52.3947 76.8694C52.6229 76.3715 52.8926 76.2885 53.4321 76.5444C57.1805 78.2941 60.9565 79.9885 64.7187 81.7105C67.2569 82.8724 69.7742 84.0619 72.3054 85.2376C74.9888 86.4825 77.6721 87.7204 80.5007 89.0344Z" fill="white"/>
<path d="M46.205 90.314C55.4376 94.5465 64.6219 98.7582 73.8338 102.984C73.2391 104.429 72.6927 105.764 72.091 107.216C62.7408 102.901 53.4805 98.6199 44.1855 94.3321C44.884 92.9351 45.5341 91.6487 46.1981 90.314H46.205Z" fill="white"/>
<path d="M83.5225 82.2917C82.9001 83.6196 82.2984 84.899 81.6069 86.3652C72.3742 82.1189 63.1415 77.8656 53.895 73.6054C54.4206 72.4367 54.9324 71.2955 55.4442 70.1544C55.6171 69.781 55.7623 69.5251 56.2948 69.781C57.5673 70.3965 58.9021 70.8944 60.1884 71.4892C64.3725 73.4187 68.5428 75.3828 72.7269 77.3192C76.3231 78.986 79.9194 80.6319 83.5156 82.2848L83.5225 82.2917Z" fill="white"/>
<path d="M57.0142 67.0216C57.6435 65.59 58.2314 64.2552 58.8469 62.8721C68.1279 67.1599 77.326 71.4132 86.6417 75.7148C85.9709 77.0703 85.3139 78.3774 84.6361 79.7398C75.3827 75.4797 66.2053 71.2541 57.0142 67.0216Z" fill="white"/>
<path d="M49.5034 83.3223C50.7967 83.8963 51.9931 84.415 53.1827 84.9682C58.0445 87.2228 62.8995 89.4843 67.7544 91.7527C70.1957 92.8938 72.6439 94.0211 75.0783 95.1899C76.6828 95.9575 76.7173 97.645 75.3272 98.7308C74.2276 99.5884 73.3147 99.2287 72.2704 98.7515C69.4972 97.4721 66.6963 96.2549 63.9161 94.9893C61.9036 94.0695 59.9118 93.0944 57.9062 92.1607C54.6488 90.6531 51.3845 89.1662 48.1203 87.6793C47.6292 87.4579 47.4425 87.2228 47.7399 86.6903C48.3347 85.6114 48.8879 84.5118 49.5034 83.3223Z" fill="white"/>
<path d="M57.1249 103.793C56.5717 105.004 56.0253 106.117 55.5412 107.258C55.3199 107.77 55.1124 107.874 54.5799 107.618C52.3253 106.539 50.0431 105.509 47.7747 104.464C45.5547 103.448 43.3278 102.445 40.9902 101.38C41.6611 99.9827 42.2904 98.6618 42.9682 97.251C47.7332 99.4502 52.4014 101.608 57.1249 103.786V103.793Z" fill="white"/>
<path d="M54.006 110.626C53.4734 111.754 52.934 112.812 52.4637 113.897C52.2148 114.471 51.862 114.534 51.3572 114.299C49.0749 113.234 46.7927 112.155 44.5036 111.103C42.4496 110.163 40.3817 109.25 38.2793 108.309C38.4591 107.507 38.5905 106.746 38.8049 106.02C39.1299 104.914 40.112 104.34 41.1978 104.692C42.0899 104.976 42.9544 105.377 43.812 105.771C47.1178 107.314 50.4166 108.883 53.7155 110.44C53.8123 110.481 53.8953 110.557 54.006 110.633V110.626Z" fill="white"/>
<path d="M39.8974 95.5769C39.4064 96.7388 38.9223 97.873 38.4451 99.0072C38.2584 99.4498 38.044 99.6365 37.5322 99.353C36.6677 98.862 35.7687 98.4332 34.8627 98.0251C34.4339 97.8315 34.3302 97.6448 34.5515 97.1883C35.0909 96.061 35.575 94.9061 36.0868 93.7373C37.3662 94.3528 38.6249 94.9614 39.9044 95.5769H39.8974Z" fill="white"/>
<path d="M51.6475 59.7803C53.1275 60.4096 54.4554 60.9767 55.7763 61.5438C55.1193 62.8647 54.4969 64.1096 53.8675 65.3683C52.5604 64.8427 51.3502 64.3586 50.0776 63.8468C50.6032 62.4913 51.1081 61.1773 51.6475 59.7803Z" fill="white"/>
</g>
<defs>
<clipPath id="clip0_6530_2353">
<rect width="115.896" height="126" fill="white" transform="translate(0.809082)"/>
</clipPath>
</defs>
</svg>
