<svg width="226" height="58" viewBox="0 0 226 58" fill="none" xmlns="http://www.w3.org/2000/svg">
<path d="M67.9214 22.3047C67.9214 22.0557 67.8823 21.8359 67.8042 21.6455C67.731 21.4502 67.5991 21.2744 67.4087 21.1182C67.2231 20.9619 66.9644 20.813 66.6323 20.6714C66.3052 20.5298 65.8901 20.3857 65.3872 20.2393C64.8599 20.083 64.3838 19.9097 63.959 19.7192C63.5342 19.5239 63.1704 19.3018 62.8677 19.0527C62.5649 18.8037 62.333 18.5181 62.1719 18.1958C62.0107 17.8735 61.9302 17.5049 61.9302 17.0898C61.9302 16.6748 62.0156 16.2915 62.1865 15.9399C62.3574 15.5884 62.6016 15.2832 62.9189 15.0244C63.2412 14.7607 63.6245 14.5557 64.0688 14.4092C64.5132 14.2627 65.0088 14.1895 65.5557 14.1895C66.3564 14.1895 67.0352 14.3433 67.5918 14.6509C68.1533 14.9536 68.5806 15.3516 68.8735 15.8447C69.1665 16.333 69.313 16.8555 69.313 17.4121H67.9067C67.9067 17.0117 67.8213 16.6577 67.6504 16.3501C67.4795 16.0376 67.2207 15.7935 66.874 15.6177C66.5273 15.437 66.0879 15.3467 65.5557 15.3467C65.0527 15.3467 64.6377 15.4224 64.3105 15.5737C63.9834 15.7251 63.7393 15.9302 63.5781 16.189C63.4219 16.4478 63.3438 16.7432 63.3438 17.0752C63.3438 17.2998 63.3901 17.5049 63.4829 17.6904C63.5806 17.8711 63.7295 18.0396 63.9297 18.1958C64.1348 18.3521 64.3936 18.4961 64.7061 18.6279C65.0234 18.7598 65.4019 18.8867 65.8413 19.0088C66.4468 19.1797 66.9692 19.3701 67.4087 19.5801C67.8481 19.79 68.2095 20.0269 68.4927 20.2905C68.7808 20.5493 68.9932 20.8447 69.1299 21.1768C69.2715 21.5039 69.3423 21.875 69.3423 22.29C69.3423 22.7246 69.2544 23.1177 69.0786 23.4692C68.9028 23.8208 68.6514 24.1211 68.3242 24.3701C67.9971 24.6191 67.604 24.812 67.145 24.9487C66.6909 25.0806 66.1831 25.1465 65.6216 25.1465C65.1284 25.1465 64.6426 25.0781 64.1641 24.9414C63.6904 24.8047 63.2583 24.5996 62.8677 24.3262C62.4819 24.0527 62.1719 23.7158 61.9375 23.3154C61.708 22.9102 61.5933 22.4414 61.5933 21.9092H62.9995C62.9995 22.2754 63.0703 22.5903 63.2119 22.854C63.3535 23.1128 63.5464 23.3276 63.7905 23.4985C64.0396 23.6694 64.3203 23.7964 64.6328 23.8794C64.9502 23.9575 65.2798 23.9966 65.6216 23.9966C66.1147 23.9966 66.5322 23.9282 66.874 23.7915C67.2158 23.6548 67.4746 23.4595 67.6504 23.2056C67.8311 22.9517 67.9214 22.6514 67.9214 22.3047ZM80.9189 23.8501V25H75.272V23.8501H80.9189ZM75.5576 14.3359V25H74.144V14.3359H75.5576ZM80.1719 18.9209V20.0708H75.272V18.9209H80.1719ZM80.8457 14.3359V15.4932H75.272V14.3359H80.8457ZM85.6694 14.3359H89.1997C90.0005 14.3359 90.6768 14.458 91.2285 14.7021C91.7852 14.9463 92.2075 15.3076 92.4956 15.7861C92.7886 16.2598 92.9351 16.8433 92.9351 17.5366C92.9351 18.0249 92.835 18.4717 92.6348 18.877C92.4395 19.2773 92.1562 19.6191 91.7852 19.9023C91.4189 20.1807 90.9795 20.3882 90.4668 20.5249L90.0713 20.6787H86.7534L86.7388 19.5288H89.2437C89.7515 19.5288 90.1738 19.4409 90.5107 19.2651C90.8477 19.0845 91.1016 18.8428 91.2725 18.54C91.4434 18.2373 91.5288 17.9028 91.5288 17.5366C91.5288 17.1265 91.4482 16.7676 91.2871 16.46C91.126 16.1523 90.8721 15.9155 90.5254 15.7495C90.1836 15.5786 89.7417 15.4932 89.1997 15.4932H87.083V25H85.6694V14.3359ZM91.9023 25L89.3096 20.166L90.7817 20.1587L93.4111 24.9121V25H91.9023ZM101.208 23.3813L104.351 14.3359H105.881L101.934 25H100.842L101.208 23.3813ZM98.2715 14.3359L101.384 23.3813L101.772 25H100.681L96.7407 14.3359H98.2715ZM111.833 14.3359V25H110.419V14.3359H111.833ZM123.842 21.6089H125.248C125.175 22.2827 124.982 22.8857 124.669 23.418C124.357 23.9502 123.915 24.3726 123.344 24.6851C122.772 24.9927 122.06 25.1465 121.205 25.1465C120.58 25.1465 120.011 25.0293 119.499 24.7949C118.991 24.5605 118.554 24.2285 118.188 23.7988C117.821 23.3643 117.538 22.8442 117.338 22.2388C117.143 21.6284 117.045 20.9497 117.045 20.2026V19.1406C117.045 18.3936 117.143 17.7173 117.338 17.1118C117.538 16.5015 117.824 15.979 118.195 15.5444C118.571 15.1099 119.022 14.7754 119.55 14.541C120.077 14.3066 120.67 14.1895 121.33 14.1895C122.135 14.1895 122.816 14.3408 123.373 14.6436C123.93 14.9463 124.362 15.3662 124.669 15.9033C124.982 16.4355 125.175 17.0532 125.248 17.7563H123.842C123.773 17.2583 123.646 16.8311 123.461 16.4746C123.275 16.1133 123.012 15.835 122.67 15.6396C122.328 15.4443 121.881 15.3467 121.33 15.3467C120.856 15.3467 120.438 15.437 120.077 15.6177C119.721 15.7983 119.42 16.0547 119.176 16.3867C118.937 16.7188 118.756 17.1167 118.634 17.5806C118.512 18.0444 118.451 18.5596 118.451 19.126V20.2026C118.451 20.7251 118.505 21.2158 118.612 21.6748C118.725 22.1338 118.893 22.5366 119.118 22.8833C119.342 23.23 119.628 23.5034 119.975 23.7036C120.321 23.8989 120.731 23.9966 121.205 23.9966C121.806 23.9966 122.284 23.9014 122.641 23.7109C122.997 23.5205 123.266 23.2471 123.446 22.8906C123.632 22.5342 123.764 22.1069 123.842 21.6089ZM131.69 14.3359V25H130.277V14.3359H131.69ZM145.472 19.3311V20.0049C145.472 20.8057 145.372 21.5234 145.171 22.1582C144.971 22.793 144.683 23.3325 144.307 23.7769C143.931 24.2212 143.479 24.5605 142.952 24.7949C142.43 25.0293 141.844 25.1465 141.194 25.1465C140.564 25.1465 139.986 25.0293 139.458 24.7949C138.936 24.5605 138.482 24.2212 138.096 23.7769C137.715 23.3325 137.42 22.793 137.21 22.1582C137 21.5234 136.895 20.8057 136.895 20.0049V19.3311C136.895 18.5303 136.998 17.8149 137.203 17.1851C137.413 16.5503 137.708 16.0107 138.089 15.5664C138.47 15.1172 138.921 14.7754 139.444 14.541C139.971 14.3066 140.55 14.1895 141.18 14.1895C141.829 14.1895 142.415 14.3066 142.938 14.541C143.465 14.7754 143.917 15.1172 144.292 15.5664C144.673 16.0107 144.964 16.5503 145.164 17.1851C145.369 17.8149 145.472 18.5303 145.472 19.3311ZM144.073 20.0049V19.3164C144.073 18.6816 144.007 18.1201 143.875 17.6318C143.748 17.1436 143.56 16.7334 143.311 16.4014C143.062 16.0693 142.757 15.8179 142.396 15.647C142.039 15.4761 141.634 15.3906 141.18 15.3906C140.74 15.3906 140.342 15.4761 139.986 15.647C139.634 15.8179 139.332 16.0693 139.078 16.4014C138.829 16.7334 138.636 17.1436 138.499 17.6318C138.362 18.1201 138.294 18.6816 138.294 19.3164V20.0049C138.294 20.6445 138.362 21.2109 138.499 21.7041C138.636 22.1924 138.831 22.605 139.085 22.9419C139.344 23.2739 139.649 23.5254 140 23.6963C140.357 23.8672 140.755 23.9526 141.194 23.9526C141.653 23.9526 142.061 23.8672 142.417 23.6963C142.774 23.5254 143.074 23.2739 143.318 22.9419C143.567 22.605 143.755 22.1924 143.882 21.7041C144.009 21.2109 144.073 20.6445 144.073 20.0049ZM67.9043 29.7812V44H66.0488V29.7812H67.9043ZM72.4746 29.7812V31.3242H61.4883V29.7812H72.4746ZM87.6172 42.4668V44H80.0879V42.4668H87.6172ZM80.4688 29.7812V44H78.584V29.7812H80.4688ZM86.6211 35.8945V37.4277H80.0879V35.8945H86.6211ZM87.5195 29.7812V31.3242H80.0879V29.7812H87.5195ZM81.9824 28.7266L83.877 25.8555H86.0547L83.4375 28.7266H81.9824ZM102.535 39.4785H104.41C104.312 40.377 104.055 41.181 103.639 41.8906C103.222 42.6003 102.633 43.1634 101.871 43.5801C101.109 43.9902 100.159 44.1953 99.0195 44.1953C98.1862 44.1953 97.4277 44.0391 96.7441 43.7266C96.0671 43.4141 95.4844 42.9714 94.9961 42.3984C94.5078 41.819 94.1302 41.1257 93.8633 40.3184C93.6029 39.5046 93.4727 38.5996 93.4727 37.6035V36.1875C93.4727 35.1914 93.6029 34.2897 93.8633 33.4824C94.1302 32.6686 94.5111 31.972 95.0059 31.3926C95.5072 30.8132 96.1094 30.3672 96.8125 30.0547C97.5156 29.7422 98.3066 29.5859 99.1855 29.5859C100.26 29.5859 101.168 29.7878 101.91 30.1914C102.652 30.5951 103.229 31.1549 103.639 31.8711C104.055 32.5807 104.312 33.4043 104.41 34.3418H102.535C102.444 33.6777 102.275 33.1081 102.027 32.6328C101.78 32.151 101.428 31.7799 100.973 31.5195C100.517 31.2591 99.9212 31.1289 99.1855 31.1289C98.554 31.1289 97.9974 31.2493 97.5156 31.4902C97.0404 31.7311 96.64 32.0729 96.3145 32.5156C95.9954 32.9583 95.7546 33.4889 95.5918 34.1074C95.429 34.7259 95.3477 35.4128 95.3477 36.168V37.6035C95.3477 38.3001 95.4193 38.9544 95.5625 39.5664C95.7122 40.1784 95.9368 40.7155 96.2363 41.1777C96.5358 41.64 96.9167 42.0046 97.3789 42.2715C97.8411 42.5319 98.388 42.6621 99.0195 42.6621C99.8203 42.6621 100.458 42.5352 100.934 42.2812C101.409 42.0273 101.767 41.6628 102.008 41.1875C102.255 40.7122 102.431 40.1426 102.535 39.4785ZM121.916 29.7812V44H120.021L112.863 33.0332V44H110.979V29.7812H112.863L120.051 40.7773V29.7812H121.916ZM131.277 29.7812V44H129.393V29.7812H131.277ZM147.289 39.4785H149.164C149.066 40.377 148.809 41.181 148.393 41.8906C147.976 42.6003 147.387 43.1634 146.625 43.5801C145.863 43.9902 144.913 44.1953 143.773 44.1953C142.94 44.1953 142.182 44.0391 141.498 43.7266C140.821 43.4141 140.238 42.9714 139.75 42.3984C139.262 41.819 138.884 41.1257 138.617 40.3184C138.357 39.5046 138.227 38.5996 138.227 37.6035V36.1875C138.227 35.1914 138.357 34.2897 138.617 33.4824C138.884 32.6686 139.265 31.972 139.76 31.3926C140.261 30.8132 140.863 30.3672 141.566 30.0547C142.27 29.7422 143.061 29.5859 143.939 29.5859C145.014 29.5859 145.922 29.7878 146.664 30.1914C147.406 30.5951 147.982 31.1549 148.393 31.8711C148.809 32.5807 149.066 33.4043 149.164 34.3418H147.289C147.198 33.6777 147.029 33.1081 146.781 32.6328C146.534 32.151 146.182 31.7799 145.727 31.5195C145.271 31.2591 144.675 31.1289 143.939 31.1289C143.308 31.1289 142.751 31.2493 142.27 31.4902C141.794 31.7311 141.394 32.0729 141.068 32.5156C140.749 32.9583 140.508 33.4889 140.346 34.1074C140.183 34.7259 140.102 35.4128 140.102 36.168V37.6035C140.102 38.3001 140.173 38.9544 140.316 39.5664C140.466 40.1784 140.691 40.7155 140.99 41.1777C141.29 41.64 141.671 42.0046 142.133 42.2715C142.595 42.5319 143.142 42.6621 143.773 42.6621C144.574 42.6621 145.212 42.5352 145.688 42.2812C146.163 42.0273 146.521 41.6628 146.762 41.1875C147.009 40.7122 147.185 40.1426 147.289 39.4785ZM166.68 36.4414V37.3398C166.68 38.4076 166.546 39.3646 166.279 40.2109C166.012 41.0573 165.628 41.7767 165.127 42.3691C164.626 42.9616 164.023 43.4141 163.32 43.7266C162.624 44.0391 161.842 44.1953 160.977 44.1953C160.137 44.1953 159.365 44.0391 158.662 43.7266C157.965 43.4141 157.36 42.9616 156.846 42.3691C156.338 41.7767 155.944 41.0573 155.664 40.2109C155.384 39.3646 155.244 38.4076 155.244 37.3398V36.4414C155.244 35.3737 155.381 34.4199 155.654 33.5801C155.934 32.7337 156.328 32.0143 156.836 31.4219C157.344 30.8229 157.946 30.3672 158.643 30.0547C159.346 29.7422 160.117 29.5859 160.957 29.5859C161.823 29.5859 162.604 29.7422 163.301 30.0547C164.004 30.3672 164.606 30.8229 165.107 31.4219C165.615 32.0143 166.003 32.7337 166.27 33.5801C166.543 34.4199 166.68 35.3737 166.68 36.4414ZM164.814 37.3398V36.4219C164.814 35.5755 164.727 34.8268 164.551 34.1758C164.382 33.5247 164.131 32.9779 163.799 32.5352C163.467 32.0924 163.06 31.7572 162.578 31.5293C162.103 31.3014 161.562 31.1875 160.957 31.1875C160.371 31.1875 159.84 31.3014 159.365 31.5293C158.896 31.7572 158.493 32.0924 158.154 32.5352C157.822 32.9779 157.565 33.5247 157.383 34.1758C157.201 34.8268 157.109 35.5755 157.109 36.4219V37.3398C157.109 38.1927 157.201 38.9479 157.383 39.6055C157.565 40.2565 157.826 40.8066 158.164 41.2559C158.509 41.6986 158.916 42.0339 159.385 42.2617C159.86 42.4896 160.391 42.6035 160.977 42.6035C161.589 42.6035 162.132 42.4896 162.607 42.2617C163.083 42.0339 163.483 41.6986 163.809 41.2559C164.141 40.8066 164.391 40.2565 164.561 39.6055C164.73 38.9479 164.814 38.1927 164.814 37.3398Z" fill="white"/>
<path d="M41.0929 25.1497C41.4274 26.201 40.5716 27.1857 39.4684 27.1857H31.0948C30.4472 27.1857 29.8489 26.8402 29.5251 26.2795L25.3377 19.0273C24.7857 18.0712 25.2111 16.8374 26.2897 16.6027C27.1631 16.4126 28.0699 16.3125 29.0002 16.3125C34.665 16.3125 39.4626 20.025 41.0929 25.1497Z" fill="white"/>
<path d="M19.622 20.4546C20.3661 19.6385 21.6479 19.8865 22.2001 20.8429L26.3857 28.0919C26.7096 28.6527 26.7096 29.3437 26.3858 29.9045L22.1991 37.156C21.6469 38.1125 20.3649 38.3605 19.6209 37.5442C17.5658 35.2896 16.3127 32.2911 16.3127 29C16.3127 25.7083 17.5662 22.7094 19.622 20.4546Z" fill="white"/>
<path d="M26.2881 41.397C25.2095 41.1621 24.7842 39.9285 25.3362 38.9725L29.5252 31.7169C29.8489 31.1561 30.4473 30.8107 31.0948 30.8107H39.4696C40.5726 30.8107 41.4282 31.795 41.0942 32.8462C39.4652 37.973 34.6665 41.6875 29.0002 41.6875C28.0693 41.6875 27.1619 41.5873 26.2881 41.397Z" fill="white"/>
<path fill-rule="evenodd" clip-rule="evenodd" d="M50.752 30.8107C51.753 30.8107 52.5645 29.9992 52.5645 28.9982C52.5645 27.9972 51.753 27.1857 50.752 27.1857H48.8582C48.7571 26.064 48.5631 24.9691 48.284 23.9087L50.0597 23.2624C51.0003 22.9201 51.4853 21.88 51.143 20.9393C50.8006 19.9987 49.7605 19.5137 48.8199 19.8561L47.044 20.5024C46.5681 19.4937 46.0101 18.5312 45.3787 17.6238L46.8282 16.4075C47.595 15.7641 47.695 14.6208 47.0516 13.854C46.4081 13.0872 45.2649 12.9872 44.4981 13.6306L43.0473 14.8479C42.2603 14.0666 41.4084 13.3506 40.5005 12.7085L41.4464 11.0702C41.9469 10.2033 41.6499 9.09484 40.783 8.59433C39.9161 8.09382 38.8076 8.39084 38.307 9.25775L37.3628 10.8932C36.3625 10.4305 35.3173 10.0482 34.2356 9.7547L34.5635 7.89512C34.7374 6.90931 34.0791 5.96924 33.0933 5.79542C32.1075 5.62159 31.1674 6.27984 30.9936 7.26564L30.665 9.12905C30.1167 9.08377 29.562 9.06068 29.002 9.06068C28.4419 9.06068 27.8871 9.08381 27.3384 9.12918L27.0099 7.26574C26.836 6.27994 25.896 5.62169 24.9102 5.79552C23.9244 5.96934 23.2661 6.90941 23.4399 7.89522L23.7679 9.75527C22.6866 10.0487 21.6416 10.4309 20.6412 10.8936L19.6965 9.25731C19.1959 8.39043 18.0874 8.09345 17.2205 8.59399C16.3536 9.09453 16.0566 10.203 16.5572 11.0699L17.5035 12.7088C16.596 13.3505 15.7444 14.0663 14.9574 14.8473L13.5056 13.6291C12.7388 12.9857 11.5955 13.0857 10.9521 13.8525C10.3086 14.6193 10.4087 15.7626 11.1755 16.406L12.626 17.6231C11.9943 18.5309 11.4361 19.4937 10.96 20.503L9.18365 19.8564C8.24301 19.5141 7.20292 19.9991 6.86055 20.9397C6.51818 21.8804 7.00318 22.9204 7.94383 23.2628L9.71991 23.9093C9.44082 24.9694 9.24684 26.0641 9.14575 27.1857H7.25195C6.25094 27.1857 5.43945 27.9972 5.43945 28.9982C5.43945 29.9992 6.25094 30.8107 7.25195 30.8107H9.14573C9.2468 31.9323 9.44075 33.027 9.71983 34.0873L7.94323 34.7339C7.00258 35.0763 6.51758 36.1164 6.85995 37.057C7.20232 37.9977 8.24241 38.4827 9.18305 38.1403L10.9598 37.4936C11.436 38.5031 11.9943 39.4661 12.6263 40.3742L11.1751 41.5919C10.4083 42.2353 10.3083 43.3785 10.9517 44.1454C11.5952 44.9122 12.7384 45.0122 13.5052 44.3688L14.9579 43.1498C15.7449 43.9309 16.5967 44.6468 17.5046 45.2887L16.557 46.9299C16.0565 47.7968 16.3536 48.9053 17.2205 49.4058C18.0874 49.9063 19.1959 49.6093 19.6964 48.7424L20.6424 47.1038C21.6424 47.5663 22.6872 47.9483 23.7684 48.2417L23.4399 50.1048C23.2661 51.0906 23.9243 52.0307 24.9101 52.2045C25.896 52.3783 26.836 51.7201 27.0098 50.7343L27.339 48.8673C27.8874 48.9126 28.442 48.9357 29.0019 48.9357C29.5618 48.9357 30.1163 48.9126 30.6644 48.8674L30.9936 50.7344C31.1675 51.7202 32.1075 52.3784 33.0933 52.2046C34.0791 52.0308 34.7374 51.0907 34.5636 50.1049L34.235 48.2418C35.3164 47.9485 36.3613 47.5664 37.3614 47.1039L38.3071 48.742C38.8077 49.6089 39.9162 49.9059 40.7831 49.4054C41.65 48.9049 41.947 47.7964 41.4465 46.9295L40.4992 45.2887C41.4074 44.6466 42.2594 43.9305 43.0467 43.1491L44.4984 44.3673C45.2652 45.0107 46.4085 44.9107 47.0519 44.1439C47.6954 43.377 47.5953 42.2338 46.8285 41.5904L45.3782 40.3734C46.0098 39.4657 46.5679 38.5031 47.0439 37.4941L48.8205 38.1407C49.7611 38.4831 50.8012 37.9981 51.1436 37.0574C51.4859 36.1168 51.0009 35.0767 50.0603 34.7343L48.2839 34.0878C48.5631 33.0274 48.7571 31.9324 48.8582 30.8107H50.752ZM44.3302 23.419C44.3156 23.3788 44.3025 23.3384 44.2908 23.2979C43.6436 21.5627 42.7094 19.9672 41.5459 18.5693C41.5295 18.5514 41.5135 18.533 41.4977 18.5142C41.4823 18.4958 41.4673 18.4772 41.4527 18.4584C40.268 17.0602 38.8519 15.8642 37.2637 14.9295C37.2281 14.912 37.1928 14.8931 37.158 14.873C37.1222 14.8523 37.0873 14.8306 37.0535 14.8079C35.4966 13.9227 33.7798 13.2862 31.9572 12.9527C31.9163 12.9483 31.8754 12.9425 31.8344 12.9353C31.7946 12.9283 31.7554 12.92 31.7168 12.9106C30.8339 12.7627 29.9269 12.6857 29.002 12.6857C28.0778 12.6857 27.172 12.7624 26.2906 12.9097C26.2507 12.9196 26.2102 12.9281 26.1691 12.9354C26.1266 12.9429 26.0842 12.9488 26.042 12.9532C24.1789 13.2945 22.4279 13.9521 20.8451 14.868C19.2068 15.816 17.7493 17.04 16.5358 18.4762C16.526 18.4884 16.516 18.5006 16.5059 18.5127C16.5008 18.5188 16.4956 18.5249 16.4904 18.531C16.4849 18.5373 16.4794 18.5436 16.4739 18.5498C15.3025 19.9529 14.3626 21.5554 13.7126 23.2988C13.701 23.3391 13.6879 23.3793 13.6733 23.4193C13.6587 23.4594 13.6429 23.4986 13.6259 23.5369C13.0194 25.2446 12.6895 27.083 12.6895 28.9982C12.6895 30.9179 13.0211 32.7601 13.6301 34.4708C13.6453 34.5056 13.6595 34.5412 13.6727 34.5774C13.6859 34.6135 13.6978 34.6498 13.7086 34.6862C15.0318 38.2426 17.56 41.2126 20.7969 43.1C20.8061 43.105 20.8152 43.11 20.8243 43.1151C20.8314 43.119 20.8384 43.123 20.8455 43.1271C20.8624 43.1369 20.8792 43.1469 20.8957 43.1572C22.4856 44.0694 24.2437 44.7215 26.1121 45.0555C26.1311 45.0582 26.1501 45.0613 26.1691 45.0646C26.1868 45.0677 26.2044 45.0711 26.2219 45.0747C27.1254 45.2299 28.0542 45.3107 29.002 45.3107C29.9498 45.3107 30.8788 45.2298 31.7823 45.0747C31.7996 45.0711 31.8169 45.0678 31.8344 45.0647C31.8532 45.0614 31.8719 45.0584 31.8907 45.0557C33.755 44.7226 35.5095 44.0727 37.0967 43.1638C37.1168 43.1511 37.1373 43.1387 37.1581 43.1267C37.178 43.1152 37.1981 43.1041 37.2182 43.0935C38.836 42.1484 40.2763 40.9329 41.4773 39.5088L41.4981 39.4837L41.5204 39.4576C42.6976 38.0501 43.6419 36.4411 44.294 34.6899C44.305 34.6524 44.3172 34.615 44.3308 34.5778C44.3444 34.5404 44.3591 34.5038 44.3748 34.4679C44.9832 32.7581 45.3145 30.9168 45.3145 28.9982C45.3145 27.0828 44.9844 25.2446 44.3779 23.5373C44.3608 23.4987 44.3449 23.4593 44.3302 23.419Z" fill="white"/>
</svg>
