<svg width="50" height="50" viewBox="0 0 50 50" fill="none" xmlns="http://www.w3.org/2000/svg">
<path fill-rule="evenodd" clip-rule="evenodd" d="M25 4.6875C13.7817 4.6875 4.6875 13.7817 4.6875 25C4.6875 36.2183 13.7817 45.3125 25 45.3125C36.2183 45.3125 45.3125 36.2183 45.3125 25C45.3125 13.7817 36.2183 4.6875 25 4.6875ZM21.4174 19.2076C20.8072 18.5975 19.8178 18.5975 19.2076 19.2076C18.5975 19.8178 18.5975 20.8072 19.2076 21.4174L22.7903 25L19.2076 28.5826C18.5975 29.1928 18.5975 30.1822 19.2076 30.7924C19.8178 31.4025 20.8072 31.4025 21.4174 30.7924L25 27.2097L28.5826 30.7924C29.1928 31.4025 30.1822 31.4025 30.7924 30.7924C31.4025 30.1822 31.4025 29.1928 30.7924 28.5826L27.2097 25L30.7924 21.4174C31.4025 20.8072 31.4025 19.8178 30.7924 19.2076C30.1822 18.5975 29.1928 18.5975 28.5826 19.2076L25 22.7903L21.4174 19.2076Z" fill="#FFA80D"/>
</svg>
