<svg width="39" height="39" viewBox="0 0 39 39" fill="none" xmlns="http://www.w3.org/2000/svg">
<path d="M22.7891 30.0625H30.2422M30.2422 30.0625H37.6953M30.2422 30.0625V22.6094M30.2422 30.0625V37.5156M6.22656 15.9844H11.1953C13.9395 15.9844 16.1641 13.7598 16.1641 11.0156V6.04688C16.1641 3.30271 13.9395 1.07812 11.1953 1.07812H6.22656C3.4824 1.07812 1.25781 3.30271 1.25781 6.04687V11.0156C1.25781 13.7598 3.4824 15.9844 6.22656 15.9844ZM6.22656 37.5156H11.1953C13.9395 37.5156 16.1641 35.291 16.1641 32.5469V27.5781C16.1641 24.834 13.9395 22.6094 11.1953 22.6094H6.22656C3.4824 22.6094 1.25781 24.834 1.25781 27.5781V32.5469C1.25781 35.291 3.4824 37.5156 6.22656 37.5156ZM27.7578 15.9844H32.7266C35.4707 15.9844 37.6953 13.7598 37.6953 11.0156V6.04688C37.6953 3.30271 35.4707 1.07812 32.7266 1.07812H27.7578C25.0136 1.07812 22.7891 3.30271 22.7891 6.04687V11.0156C22.7891 13.7598 25.0136 15.9844 27.7578 15.9844Z" stroke="#FFA80D" stroke-width="2" stroke-linecap="round" stroke-linejoin="round"/>
</svg>
