<svg width="51" height="56" viewBox="0 0 51 56" fill="none" xmlns="http://www.w3.org/2000/svg">
<path d="M35.2867 23.513V11.2992C35.2867 5.678 30.7298 1.12109 25.1086 1.12109C19.4874 1.12109 14.9305 5.678 14.9305 11.2992V23.513M45.7526 18.1043L49.181 50.6743C49.3708 52.4771 47.9572 54.0473 46.1444 54.0473H4.07281C2.25998 54.0473 0.846372 52.4771 1.03615 50.6743L4.46457 18.1043C4.62815 16.5502 5.93861 15.3705 7.50123 15.3705H42.7159C44.2786 15.3705 45.589 16.5502 45.7526 18.1043ZM15.9483 23.513C15.9483 24.0751 15.4926 24.5308 14.9305 24.5308C14.3683 24.5308 13.9126 24.0751 13.9126 23.513C13.9126 22.9508 14.3683 22.4952 14.9305 22.4952C15.4926 22.4952 15.9483 22.9508 15.9483 23.513ZM36.3045 23.513C36.3045 24.0751 35.8488 24.5308 35.2867 24.5308C34.7246 24.5308 34.2689 24.0751 34.2689 23.513C34.2689 22.9508 34.7246 22.4952 35.2867 22.4952C35.8488 22.4952 36.3045 22.9508 36.3045 23.513Z" stroke="#FFA80D" stroke-width="2" stroke-linecap="round" stroke-linejoin="round"/>
</svg>
