<svg width="53" height="53" viewBox="0 0 53 53" fill="none" xmlns="http://www.w3.org/2000/svg">
<path d="M38.2474 7.19974L42.7348 2.71233C44.682 0.765162 47.8389 0.765162 49.7861 2.71233C51.7333 4.65949 51.7333 7.81647 49.7861 9.76364L21.5489 38.0009C20.143 39.4067 18.409 40.4402 16.5036 41.0078L9.36387 43.1346L11.4907 35.9949C12.0583 34.0895 13.0917 32.3555 14.4975 30.9496L38.2474 7.19974ZM38.2474 7.19974L45.2633 14.2156M41.2744 32.4977V45.129C41.2744 48.4334 38.5956 51.1122 35.2912 51.1122H7.36946C4.06501 51.1122 1.38623 48.4334 1.38623 45.129V17.2072C1.38623 13.9028 4.06501 11.224 7.36946 11.224H20.0007" stroke="#FFA80D" stroke-width="2" stroke-linecap="round" stroke-linejoin="round"/>
</svg>
