<svg width="52" height="52" viewBox="0 0 52 52" fill="none" xmlns="http://www.w3.org/2000/svg">
<path d="M35.7506 40.625H16.2506M35.7506 40.625C39.3404 40.625 42.2506 43.5351 42.2506 47.125H9.75056C9.75056 43.5351 12.6607 40.625 16.2506 40.625M35.7506 40.625V33.3125C35.7506 31.9663 34.6593 30.875 33.3131 30.875H31.4245M16.2506 40.625V33.3125C16.2506 31.9663 17.3419 30.875 18.6881 30.875H20.5766M31.4245 30.875H20.5766M31.4245 30.875C30.2386 28.825 29.4877 26.4918 29.2981 24.0017M20.5766 30.875C21.7625 28.825 22.5134 26.4918 22.7031 24.0017M11.3756 9.17877C9.24724 9.48827 7.1405 9.8643 5.0575 10.3047C6.03317 16.0842 10.8229 20.5678 16.7481 21.0768M11.3756 9.17877V9.75C11.3756 14.3169 13.4688 18.3948 16.7481 21.0768M11.3756 9.17877V5.89527C16.154 5.22277 21.0367 4.875 26.0006 4.875C30.9645 4.875 35.8471 5.22277 40.6256 5.89527V9.17877M16.7481 21.0768C18.4545 22.4724 20.4821 23.4899 22.7031 24.0017M40.6256 9.17877V9.75C40.6256 14.3169 38.5323 18.3948 35.253 21.0768M40.6256 9.17877C42.7539 9.48827 44.8606 9.8643 46.9436 10.3047C45.968 16.0842 41.1782 20.5678 35.253 21.0768M35.253 21.0768C33.5466 22.4724 31.519 23.4899 29.2981 24.0017M29.2981 24.0017C28.2383 24.246 27.1345 24.375 26.0006 24.375C24.8666 24.375 23.7628 24.246 22.7031 24.0017" stroke="#FFA80D" stroke-width="1.5" stroke-linecap="round" stroke-linejoin="round"/>
</svg>
