<svg width="40" height="51" viewBox="0 0 40 51" fill="none" xmlns="http://www.w3.org/2000/svg">
<path d="M15.0572 1.23535H3.89894C2.3583 1.23535 1.10938 2.48428 1.10938 4.02491V46.7982C1.10938 48.3388 2.3583 49.5877 3.89894 49.5877H35.514C37.0546 49.5877 38.3035 48.3388 38.3035 46.7982V24.4817M15.0572 1.23535H15.987C28.3121 1.23535 38.3035 11.2268 38.3035 23.5518V24.4817M15.0572 1.23535C19.6791 1.23535 23.4259 4.98214 23.4259 9.60403V13.3234C23.4259 14.8641 24.6748 16.113 26.2154 16.113H29.9348C34.5567 16.113 38.3035 19.8598 38.3035 24.4817M12.2676 32.8504L17.8467 38.4295L27.1453 25.4115" stroke="#FFA80D" stroke-width="2" stroke-linecap="round" stroke-linejoin="round"/>
</svg>
