<svg width="51" height="48" viewBox="0 0 51 48" fill="none" xmlns="http://www.w3.org/2000/svg">
<path d="M5.24944 1.86572V29.7613C5.24944 32.8426 7.7473 35.3405 10.8286 35.3405H16.4077M5.24944 1.86572H1.53003M5.24944 1.86572H46.163M46.163 1.86572H49.8824M46.163 1.86572V29.7613C46.163 32.8426 43.6651 35.3405 40.5839 35.3405H35.0048M16.4077 35.3405H35.0048M16.4077 35.3405L13.9281 42.7793M35.0048 35.3405L37.4844 42.7793M37.4844 42.7793L38.7242 46.4987M37.4844 42.7793H13.9281M13.9281 42.7793L12.6883 46.4987M18.2674 22.3225V26.0419M25.7062 16.7434V26.0419M33.145 11.1643V26.0419" stroke="#FFA80D" stroke-width="2" stroke-linecap="round" stroke-linejoin="round"/>
</svg>
