<svg width="48" height="58" viewBox="0 0 48 58" fill="none" xmlns="http://www.w3.org/2000/svg">
<path d="M22.3437 6.28764C22.1671 6.87607 22.072 7.50124 22.072 8.14921C22.072 9.31083 22.9885 10.2525 24.1191 10.2525H36.4014C37.5319 10.2525 38.4484 9.31083 38.4484 8.14921C38.4484 7.50124 38.3534 6.87607 38.1768 6.28764M22.3437 6.28764C23.1167 3.71147 25.4522 1.83936 28.2132 1.83936H32.3073C35.0683 1.83936 37.4037 3.71147 38.1768 6.28764M22.3437 6.28764C21.3184 6.35043 20.2962 6.42534 19.2774 6.51222C16.1902 6.7755 13.8839 9.47635 13.8839 12.6593V18.6656M38.1768 6.28764C39.2021 6.35043 40.2243 6.42534 41.2431 6.51222C44.3303 6.7755 46.6366 9.47635 46.6366 12.6593V41.8018C46.6366 45.2866 43.8871 48.1117 40.4955 48.1117H34.3543M13.8839 18.6656H4.67214C2.9763 18.6656 1.60156 20.0782 1.60156 21.8206V53.3699C1.60156 55.1123 2.9763 56.5248 4.67214 56.5248H31.2838C32.9796 56.5248 34.3543 55.1123 34.3543 53.3699V48.1117M13.8839 18.6656H31.2838C32.9796 18.6656 34.3543 20.0782 34.3543 21.8206V48.1117M11.8368 39.6985L15.9309 43.9051L24.1191 33.3886" stroke="#FFA80D" stroke-width="2" stroke-linecap="round" stroke-linejoin="round"/>
</svg>
