<svg width="51" height="47" viewBox="0 0 51 47" fill="none" xmlns="http://www.w3.org/2000/svg">
<path d="M25.696 1.56934V43.7646M25.696 43.7646C22.0954 43.7646 18.6461 44.4129 15.4587 45.5992M25.696 43.7646C29.2967 43.7646 32.7459 44.4129 35.9334 45.5992M42.2072 6.39034C36.8125 5.63111 31.3001 5.23849 25.696 5.23849C20.0919 5.23849 14.5795 5.63111 9.18486 6.39034M42.2072 6.39034C44.6789 6.73819 47.1258 7.163 49.5455 7.66226M42.2072 6.39034L48.6169 32.6254C48.9149 33.8452 48.3572 35.139 47.1756 35.564C45.6239 36.1221 43.9511 36.4263 42.2072 36.4263C40.4634 36.4263 38.7905 36.1221 37.2389 35.564C36.0573 35.139 35.4995 33.8452 35.7976 32.6254L42.2072 6.39034ZM1.84656 7.66226C4.26628 7.163 6.71322 6.73819 9.18486 6.39034M9.18486 6.39034L15.5945 32.6254C15.8926 33.8452 15.3348 35.139 14.1532 35.564C12.6016 36.1221 10.9287 36.4263 9.18486 36.4263C7.44099 36.4263 5.76815 36.1221 4.2165 35.564C3.03489 35.139 2.47716 33.8452 2.77519 32.6254L9.18486 6.39034Z" stroke="#FFA80D" stroke-width="2" stroke-linecap="round" stroke-linejoin="round"/>
</svg>
