<svg width="37" height="48" viewBox="0 0 37 48" fill="none" xmlns="http://www.w3.org/2000/svg">
<path d="M35.9914 29.309V23.3278C35.9914 19.0807 32.5484 15.6377 28.3012 15.6377H24.8834C23.4677 15.6377 22.32 14.49 22.32 13.0743V9.65645C22.32 5.4093 18.877 1.96631 14.6299 1.96631H10.3576M12.0665 34.4358V36.1447M18.9022 29.309V36.1447M25.7379 24.1823V36.1447M15.4843 1.96631H4.37637C2.96065 1.96631 1.81299 3.11397 1.81299 4.52969V43.8349C1.81299 45.2506 2.96065 46.3982 4.37637 46.3982H33.428C34.8437 46.3982 35.9914 45.2506 35.9914 43.8349V22.4734C35.9914 11.1476 26.8101 1.96631 15.4843 1.96631Z" stroke="#FFA80D" stroke-width="2" stroke-linecap="round" stroke-linejoin="round"/>
</svg>
