<svg width="53" height="54" viewBox="0 0 53 54" fill="none" xmlns="http://www.w3.org/2000/svg">
<g clip-path="url(#clip0_4559_494)">
<path d="M13.83 37.09C13.59 37.09 13.36 36.99 13.2 36.79C10.77 33.78 9.48999 30.14 9.48999 26.28C9.48999 17.02 17.02 9.5 26.27 9.5C33.16 9.5 39.45 13.82 41.93 20.24C42.09 20.66 41.88 21.13 41.46 21.29C41.04 21.45 40.57 21.24 40.41 20.82C38.17 15.02 32.48 11.12 26.26 11.12C17.9 11.12 11.1 17.92 11.1 26.28C11.1 29.77 12.26 33.05 14.45 35.78C14.73 36.13 14.68 36.64 14.33 36.92C14.18 37.04 14 37.1 13.82 37.1L13.83 37.09Z" fill="#FFA80D"/>
<path d="M38.71 37.0902C38.53 37.0902 38.35 37.0302 38.2 36.9102C37.85 36.6302 37.8 36.1202 38.08 35.7702C38.4 35.3702 38.71 34.9502 38.99 34.5202C39.23 34.1402 39.74 34.0402 40.11 34.2802C40.49 34.5202 40.59 35.0302 40.35 35.4002C40.04 35.8702 39.7 36.3402 39.35 36.7802C39.19 36.9802 38.95 37.0802 38.72 37.0802L38.71 37.0902Z" fill="#FFA80D"/>
<path d="M40.9301 33.41C40.8201 33.41 40.7101 33.39 40.6101 33.34C40.2001 33.16 40.0101 32.68 40.1901 32.27C40.5301 31.49 40.8001 30.68 41.0001 29.86C41.1101 29.42 41.5401 29.16 41.9801 29.26C42.4201 29.37 42.6801 29.81 42.5801 30.24C42.3601 31.15 42.0601 32.05 41.6801 32.92C41.5501 33.23 41.2501 33.41 40.9301 33.41ZM42.2001 28.21C42.2001 28.21 42.1601 28.21 42.1401 28.21C41.6901 28.18 41.3601 27.79 41.3901 27.34C41.4101 26.99 41.4301 26.63 41.4301 26.27C41.4301 25.78 41.4101 25.28 41.3601 24.79C41.3201 24.34 41.6401 23.95 42.0901 23.9C42.5301 23.85 42.9301 24.18 42.9801 24.63C43.0301 25.17 43.0601 25.72 43.0601 26.27C43.0601 26.67 43.0501 27.06 43.0201 27.45C42.9901 27.88 42.6301 28.21 42.2101 28.21H42.2001Z" fill="#FFA80D"/>
<path d="M41.6801 22.8799C41.3201 22.8799 41.0001 22.6399 40.9001 22.2799C40.7701 21.7899 40.6001 21.2899 40.4201 20.8199C40.2601 20.3999 40.4701 19.9299 40.8901 19.7699C41.3101 19.6099 41.7801 19.8199 41.9401 20.2399C42.1401 20.7699 42.3201 21.3099 42.4701 21.8599C42.5901 22.2899 42.3301 22.7399 41.9001 22.8599C41.8301 22.8799 41.7601 22.8899 41.6901 22.8899L41.6801 22.8799Z" fill="#FFA80D"/>
<path d="M45.3 44.05C45.09 44.05 44.88 43.97 44.73 43.81C44.41 43.49 44.41 42.98 44.73 42.66L46.2 41.19C46.33 41.06 46.33 40.84 46.2 40.7L43.29 37.79C42.84 37.34 42.76 36.65 43.08 36.1C43.98 34.57 44.66 32.91 45.11 31.19C45.27 30.58 45.82 30.15 46.45 30.15H50.57C50.76 30.15 50.92 30 50.92 29.8V22.73C50.92 22.54 50.77 22.38 50.57 22.38H46.45C45.82 22.38 45.27 21.95 45.11 21.34C44.66 19.61 43.98 17.96 43.08 16.43C42.76 15.88 42.85 15.19 43.29 14.74L46.2 11.83C46.29 11.74 46.3 11.64 46.3 11.59C46.3 11.54 46.29 11.43 46.2 11.35L41.2 6.35C41.11 6.26 41.01 6.25 40.96 6.25C40.91 6.25 40.8 6.26 40.72 6.35L37.81 9.26C37.36 9.7 36.67 9.79 36.12 9.47C34.59 8.57 32.93 7.89 31.21 7.44C30.6 7.28 30.17 6.73 30.17 6.1V1.97C30.17 1.78 30.02 1.62 29.82 1.62H22.75C22.56 1.62 22.4 1.77 22.4 1.97V6.09C22.4 6.72 21.97 7.27 21.36 7.43C19.63 7.88 17.98 8.56 16.45 9.46C15.9 9.78 15.21 9.69 14.76 9.25L11.85 6.34C11.72 6.21 11.5 6.21 11.36 6.34L6.36 11.34C6.27 11.43 6.26 11.53 6.26 11.58C6.26 11.63 6.27 11.74 6.36 11.82L9.27 14.73C9.72 15.18 9.8 15.87 9.48 16.42C8.58 17.95 7.9 19.61 7.45 21.33C7.29 21.94 6.74 22.37 6.11 22.37H1.97C1.78 22.37 1.62 22.52 1.62 22.72V29.79C1.62 29.98 1.77 30.14 1.97 30.14H6.09C6.72 30.14 7.27 30.57 7.43 31.18C7.88 32.91 8.56 34.56 9.46 36.09C9.78 36.64 9.69 37.33 9.25 37.78L6.34 40.69C6.21 40.82 6.21 41.04 6.34 41.18L7.81 42.65C8.13 42.97 8.13 43.48 7.81 43.8C7.49 44.12 6.98 44.12 6.66 43.8L5.19 42.33C4.42 41.56 4.42 40.31 5.19 39.54L7.97 36.76C7.07 35.19 6.37 33.51 5.9 31.76H1.97C0.88 31.76 0 30.88 0 29.79V22.72C0 21.63 0.88 20.75 1.97 20.75H5.91C6.38 19 7.08 17.32 7.98 15.75L5.2 12.97C4.83 12.6 4.62 12.1 4.62 11.58C4.62 11.06 4.82 10.56 5.2 10.19L10.2 5.19C10.97 4.42 12.22 4.42 12.99 5.19L15.77 7.97C17.34 7.07 19.02 6.37 20.77 5.9V1.97C20.77 0.88 21.65 0 22.74 0H29.81C30.9 0 31.78 0.88 31.78 1.97V5.91C33.53 6.38 35.21 7.08 36.78 7.98L39.56 5.2C40.3 4.46 41.6 4.46 42.35 5.2L47.35 10.2C47.72 10.57 47.93 11.07 47.93 11.59C47.93 12.11 47.73 12.61 47.35 12.98L44.57 15.76C45.47 17.33 46.17 19.01 46.64 20.76H50.58C51.67 20.76 52.55 21.64 52.55 22.73V29.8C52.55 30.89 51.67 31.77 50.58 31.77H46.64C46.17 33.52 45.47 35.2 44.57 36.77L47.35 39.55C48.12 40.32 48.12 41.57 47.35 42.34L45.88 43.81C45.72 43.97 45.51 44.05 45.31 44.05H45.3Z" fill="#FFA80D"/>
<path d="M26.27 35.08C22.38 35.08 19.21 31.91 19.21 28.02C19.21 24.13 22.38 20.96 26.27 20.96C30.16 20.96 33.33 24.13 33.33 28.02C33.33 31.91 30.16 35.08 26.27 35.08ZM26.27 22.59C23.27 22.59 20.84 25.03 20.84 28.02C20.84 31.01 23.28 33.45 26.27 33.45C29.26 33.45 31.7 31.01 31.7 28.02C31.7 25.03 29.26 22.59 26.27 22.59Z" fill="#FFA80D"/>
<path d="M41.69 53.3499H10.85C10.4 53.3499 10.04 52.9899 10.04 52.5399C10.04 45.2599 14.95 38.8299 21.97 36.8999C22.4 36.7799 22.85 37.0399 22.97 37.4699C23.09 37.8999 22.83 38.3499 22.4 38.4699C16.34 40.1299 12.03 45.5199 11.69 51.7299H40.86C40.51 45.5199 36.2 40.1299 30.15 38.4699C29.72 38.3499 29.46 37.8999 29.58 37.4699C29.7 37.0399 30.15 36.7799 30.58 36.8999C37.61 38.8299 42.51 45.2599 42.51 52.5399C42.51 52.9899 42.15 53.3499 41.7 53.3499H41.69Z" fill="#FFA80D"/>
</g>
<defs>
<clipPath id="clip0_4559_494">
<rect width="52.54" height="53.35" fill="white"/>
</clipPath>
</defs>
</svg>
