<svg width="39" height="50" viewBox="0 0 39 50" fill="none" xmlns="http://www.w3.org/2000/svg">
<g clip-path="url(#clip0_4559_539)">
<path d="M18.3332 0C20.4118 2.34008 21.879 5.11275 23.679 7.65038C24.7862 9.21044 25.8153 10.825 26.8818 12.4123C26.9123 12.4566 26.9497 12.494 27.004 12.5622C27.6663 11.5744 28.315 10.607 28.9671 9.63962C29.1879 9.31262 29.4086 8.98563 29.6328 8.66203C29.9894 8.14088 30.6415 8.07616 31.0762 8.536C31.2664 8.73697 31.4227 8.97881 31.5789 9.21044C33.5352 12.1159 35.4609 15.0419 37.4477 17.9304C39.8082 21.3604 39.5093 26.1905 36.3168 29.1948C36.1843 29.3208 36.1096 29.5899 36.13 29.7806C36.5613 34.0078 35.685 37.9351 33.4299 41.5287C31.8472 44.0527 29.7449 46.0522 27.1705 47.5577C24.6843 49.0122 21.9978 49.8161 19.1449 49.9693C14.3527 50.2248 10.0937 48.7601 6.41551 45.6775C3.52184 43.2489 1.58933 40.1696 0.63836 36.5079C-0.764322 31.1023 0.142497 26.0815 3.26712 21.4524C6.21852 17.0788 9.15974 12.6984 12.101 8.31801C13.7719 5.83146 15.4328 3.3347 17.1071 0.851557C17.3177 0.548402 17.586 0.282717 17.8272 0C17.997 0 18.1634 0 18.3332 0ZM18.126 2.60236C17.9392 2.88507 17.7626 3.15417 17.5826 3.41985C14.8588 7.46986 12.1349 11.5233 9.41107 15.5733C7.87932 17.8486 6.34419 20.124 4.81244 22.3993C1.7082 27.008 0.855725 32.0015 2.77465 37.2335C5.02302 43.3681 9.46541 47.023 15.9728 47.9937C18.1192 48.3139 20.2759 48.2356 22.3647 47.6088C28.4916 45.7661 32.3736 41.7297 33.9869 35.5133C34.4012 33.9158 34.4114 32.2876 34.3367 30.6288C34.2654 30.6526 34.2144 30.6629 34.1669 30.6833C31.3547 31.9572 28.5935 31.8618 25.9478 30.2609C23.6179 28.8507 22.2594 26.7321 21.8926 24.0446C21.5767 21.7317 22.1779 19.6096 23.5398 17.7022C24.2904 16.6496 24.99 15.5562 25.7134 14.4833C25.8255 14.3164 25.9138 14.1937 25.761 13.9655C23.2205 10.1982 20.6971 6.42414 18.1294 2.59895L18.126 2.60236ZM30.4241 10.7466C30.329 10.8693 30.2849 10.9238 30.2475 10.9783C28.478 13.6011 26.7119 16.2273 24.9425 18.8501C24.2972 19.8072 23.8488 20.8291 23.6858 21.9906C23.0541 26.4664 26.9972 30.3733 31.4498 29.658C36.0824 28.9121 38.881 23.6017 36.1639 19.3167C34.6186 16.8813 32.9612 14.5207 31.3547 12.1296C31.0592 11.6868 30.7638 11.244 30.4309 10.7466H30.4241Z" fill="#FFA80D"/>
<path d="M4.07568 32.0796C4.07568 29.1809 5.00288 26.6024 6.62972 24.2487C6.91501 23.8331 7.53314 23.7037 7.93731 23.9592C8.3075 24.1908 8.42638 24.7528 8.17165 25.2092C7.7607 25.945 7.26823 26.6399 6.91841 27.4029C4.96892 31.6164 5.87574 36.7189 9.08187 40.057C10.4268 41.4569 11.9789 42.489 13.8197 43.0919C14.0405 43.1635 14.2782 43.2759 14.4243 43.4462C14.6722 43.7289 14.7945 44.0695 14.5499 44.451C14.2748 44.87 13.942 45.0573 13.4801 44.887C12.665 44.5839 11.8363 44.2943 11.0823 43.872C7.40069 41.8044 5.14553 38.6638 4.30663 34.5219C4.14701 33.7282 4.14701 32.9005 4.07568 32.0864V32.0796Z" fill="#FFA80D"/>
<path d="M16.7201 45.7662C16.2242 45.7662 15.8132 45.3302 15.8132 44.7988C15.8132 44.322 16.2174 43.9132 16.6963 43.8996C17.182 43.8894 17.6608 44.3458 17.6608 44.8227C17.6608 45.3268 17.2261 45.7628 16.7201 45.7628V45.7662Z" fill="#FFA80D"/>
<path d="M26.3927 20.022C26.9396 20.0152 27.3539 20.5364 27.2079 21.0814C27.0041 21.8342 26.8546 22.5869 26.9769 23.3704C27.0992 24.1504 27.5339 24.7397 28.0875 25.2608C28.2098 25.3766 28.3456 25.4788 28.4679 25.5946C28.8958 25.9863 28.957 26.4666 28.6343 26.8651C28.2879 27.2909 27.7886 27.3659 27.3233 27.0389C26.1278 26.1907 25.4452 25.019 25.1667 23.5884C24.9663 22.5597 25.1259 21.5753 25.5097 20.6147C25.6727 20.2094 25.9682 20.0289 26.3927 20.0254V20.022Z" fill="#FFA80D"/>
<path d="M30.4311 26.2788C30.927 26.2788 31.3481 26.6876 31.3583 27.1815C31.3685 27.6651 30.9066 28.1045 30.3971 28.0977C29.9115 28.0909 29.5345 27.689 29.5379 27.1917C29.5447 26.6569 29.9115 26.2822 30.4311 26.2822V26.2788Z" fill="#FFA80D"/>
</g>
<defs>
<clipPath id="clip0_4559_539">
<rect width="39" height="50" fill="white"/>
</clipPath>
</defs>
</svg>
