<svg width="53" height="44" viewBox="0 0 53 44" fill="none" xmlns="http://www.w3.org/2000/svg">
<path d="M1.97217 36.9341C15.9514 36.9341 29.494 38.7637 42.3635 42.1914C44.2223 42.6865 46.0793 41.3341 46.0793 39.449V36.9341M5.80757 1.28027V3.15679C5.80757 4.19316 4.94899 5.03331 3.88987 5.03331H1.97217M1.97217 5.03331V4.09505C1.97217 2.54049 3.26004 1.28027 4.84872 1.28027H47.997M1.97217 5.03331V27.5515M47.997 1.28027V3.15679C47.997 4.19316 48.8556 5.03331 49.9147 5.03331H51.8324M47.997 1.28027H48.9559C50.5445 1.28027 51.8324 2.54049 51.8324 4.09505V28.4898C51.8324 30.0443 50.5445 31.3046 48.9559 31.3046H47.997M51.8324 27.5515H49.9147C48.8556 27.5515 47.997 28.3917 47.997 29.428V31.3046M47.997 31.3046H5.80757M5.80757 31.3046H4.84872C3.26004 31.3046 1.97217 30.0443 1.97217 28.4898V27.5515M5.80757 31.3046V29.428C5.80757 28.3917 4.94899 27.5515 3.88987 27.5515H1.97217M34.5731 16.2924C34.5731 20.4379 31.1388 23.7985 26.9023 23.7985C22.6658 23.7985 19.2315 20.4379 19.2315 16.2924C19.2315 12.1469 22.6658 8.78635 26.9023 8.78635C31.1388 8.78635 34.5731 12.1469 34.5731 16.2924ZM42.2439 16.2924H42.2631V16.3112H42.2439V16.2924ZM11.5607 16.2924H11.5799V16.3112H11.5607V16.2924Z" stroke="#DF9815" stroke-width="2" stroke-linecap="round" stroke-linejoin="round"/>
</svg>
