<svg width="50" height="50" viewBox="0 0 50 50" fill="none" xmlns="http://www.w3.org/2000/svg">
<path d="M9.30686 6.84115L10.1571 11.9423C10.7053 15.2317 12.2676 18.2676 14.6256 20.6256L19 25L17.967 27.066C17.3895 28.221 17.6159 29.6159 18.529 30.529L22.1213 34.1213C22.6839 34.6839 23 35.447 23 36.2426V39.1459C23 40.2822 23.642 41.321 24.6584 41.8292L25.066 42.033C26.221 42.6105 27.6159 42.3841 28.529 41.471L30.4561 39.5438C33.4294 36.5706 35.5387 32.8452 36.5585 28.7659C36.8285 27.6862 36.4567 26.5472 35.6017 25.8347L32.0568 22.8807C31.3859 22.3215 30.5046 22.0826 29.6431 22.2262L26.5228 22.7462C25.5672 22.9055 24.5934 22.5934 23.9083 21.9083L23.1213 21.1213C21.9497 19.9497 21.9497 18.0503 23.1213 16.8787L23.471 16.529C24.3841 15.6159 25.779 15.3895 26.934 15.967L28.5445 16.7722C28.844 16.922 29.1744 17 29.5093 17C31.113 17 32.1561 15.3123 31.4389 13.8778L31 13L34.3484 10.7677C36.086 9.60931 37.4912 8.01752 38.4252 6.14966L38.8141 5.37179M9.30686 6.84115C4.21909 11.242 1 17.745 1 25C1 38.2548 11.7452 49 25 49C38.2548 49 49 38.2548 49 25C49 16.888 44.9754 9.71604 38.8141 5.37179M9.30686 6.84115C13.5145 3.20166 19.0001 1 25 1C30.1429 1 34.9079 2.61761 38.8141 5.37179" stroke="#FFA80D" stroke-width="2" stroke-linecap="round" stroke-linejoin="round"/>
</svg>
