<svg width="49" height="38" viewBox="0 0 49 38" fill="none" xmlns="http://www.w3.org/2000/svg">
<g clip-path="url(#clip0_4559_526)">
<path d="M29.1058 15.8857C29.2294 15.9348 29.3654 15.9594 29.4891 15.9594C29.7487 15.9594 30.0084 15.8611 30.1938 15.6645L37.8103 8.09647C38.2059 7.70332 38.2059 7.07675 37.8103 6.6836C35.5847 4.47215 32.6296 3.25586 29.4891 3.25586C28.9327 3.25586 28.4875 3.69815 28.4875 4.25101V14.9519C28.4875 15.3574 28.7348 15.7137 29.1058 15.8734V15.8857ZM30.4906 5.30759C32.3823 5.50416 34.1628 6.22902 35.6465 7.43303L30.4906 12.5562V5.30759Z" fill="#FFA80D"/>
<path d="M26.5216 28.9577C29.6622 28.9577 32.6172 27.7414 34.8428 25.5299C35.0283 25.3457 35.1396 25.0877 35.1396 24.8297C35.1396 24.5716 35.0283 24.3136 34.8428 24.1294L27.5231 16.8562V6.54837C27.5231 5.99551 27.078 5.55322 26.5216 5.55322C20.0303 5.55322 14.7507 10.7993 14.7507 17.2493C14.7507 23.6994 20.0303 28.9454 26.5216 28.9454V28.9577ZM25.5201 7.60495V17.2616C25.5201 17.5319 25.6314 17.7776 25.8168 17.9619L32.6914 24.7928C30.9604 26.2057 28.7967 26.9674 26.534 26.9674C21.1431 26.9674 16.7661 22.6182 16.7661 17.2616C16.7661 12.249 20.6114 8.10867 25.5325 7.60495H25.5201Z" fill="#FFA80D"/>
<path d="M30.6018 17.9618L38.2183 25.5298C38.4038 25.7141 38.6634 25.8247 38.9231 25.8247C39.1827 25.8247 39.4424 25.7141 39.6278 25.5298C41.8534 23.3184 43.0775 20.3821 43.0775 17.2615C43.0775 11.6592 39.6773 9.00542 39.5289 8.90714C39.1332 8.59999 38.5645 8.63685 38.2059 8.99314L30.5895 16.5612C30.1938 16.9543 30.1938 17.5809 30.5895 17.9741L30.6018 17.9618ZM38.9354 11.094C39.7515 12.0277 41.0745 14.0303 41.0745 17.2615C41.0745 19.5221 40.3079 21.6598 38.886 23.3798L32.7285 17.2615L38.9354 11.094Z" fill="#FFA80D"/>
<path d="M46.3788 32.5205V0.99515C46.3788 0.442289 45.9337 0 45.3773 0H3.63521C3.07881 0 2.6337 0.442289 2.6337 0.99515V32.5205C1.1747 32.5942 0.0124512 33.786 0.0124512 35.248C0.0124512 36.71 1.24889 37.9877 2.76971 37.9877H46.2552C47.776 37.9877 49.0125 36.7591 49.0125 35.248C49.0125 33.7368 47.8502 32.5942 46.3912 32.5205H46.3788ZM4.63673 22.5936V1.9903H44.3634V32.5082H4.63673V22.5936ZM46.2428 35.9974H2.75734C2.33695 35.9974 2.00311 35.6657 2.00311 35.248C2.00311 34.8303 2.33695 34.4985 2.75734 34.4985H46.2428C46.6509 34.4985 46.9971 34.8303 46.9971 35.248C46.9971 35.6657 46.6632 35.9974 46.2428 35.9974Z" fill="#FFA80D"/>
</g>
<defs>
<clipPath id="clip0_4559_526">
<rect width="49" height="38" fill="white"/>
</clipPath>
</defs>
</svg>
