<svg width="44" height="48" viewBox="0 0 44 48" fill="none" xmlns="http://www.w3.org/2000/svg">
<g clip-path="url(#clip0_6520_2166)">
<path d="M43.9932 48H-0.000419191V31.9826H1.53625C1.54906 31.8783 1.56186 31.8326 1.56186 31.787C1.56186 27.0065 1.56186 22.2261 1.55546 17.4522C1.55546 17.3022 1.44021 17.1 1.31856 17.0022C0.441374 16.3174 0.0123864 15.4174 -0.000419191 14.2957C-0.00682198 13.063 -0.0132248 11.8304 -0.000419191 10.5913C-0.000419191 10.3565 0.0636087 10.0957 0.166053 9.88043C1.72193 6.71739 3.28421 3.55435 4.82729 0.384783C4.96175 0.11087 5.0962 0 5.40994 0C16.4676 0.0130435 27.5252 0.00652174 38.5828 0C38.8581 0 39.0118 0.0652174 39.1463 0.33913C40.7021 3.5413 42.2772 6.73044 43.8395 9.92609C43.9163 10.0891 43.9804 10.2783 43.9804 10.4543C43.9932 11.7848 43.9996 13.1087 43.9804 14.4391C43.9612 15.45 43.5578 16.2913 42.7638 16.9043C42.5013 17.1065 42.4117 17.3087 42.4117 17.6348C42.4245 22.2391 42.4181 26.85 42.4181 31.4543C42.4181 31.6239 42.4181 31.787 42.4181 32.0087H43.9868V47.9935L43.9932 48ZM42.3989 33.6326H1.61308V46.3696H42.4053V33.6326H42.3989ZM10.9996 23.2304C11.4798 22.9304 11.8319 22.5652 12.2417 22.4804C13.1957 22.2913 14.1754 22.363 15.0654 22.8261C16.6597 23.6543 17.3191 25.0435 17.2807 26.8174C17.2743 27.1761 17.3768 27.313 17.7161 27.4304C19.208 27.9522 20.098 29.0283 20.3605 30.613C20.4309 31.0565 20.4309 31.5065 20.4629 31.963H23.5811V25.5783H25.9373C25.9373 24.7304 25.9181 23.9348 25.9373 23.1457C25.9693 22.1283 26.4815 21.4239 27.3779 20.987C27.5444 20.9087 27.7045 20.7196 27.7749 20.55C27.9798 20.0348 28.1335 19.5065 28.3191 18.9522C28.8442 19.1348 29.3116 19.2913 29.7982 19.4609C29.6445 19.9304 29.4909 20.3413 29.382 20.7587C29.35 20.8826 29.4204 21.0848 29.5165 21.1696C29.8302 21.45 30.7458 21.0783 30.9059 20.6217C31.0915 20.0804 31.2644 19.5326 31.4565 18.9522C31.9687 19.1217 32.4425 19.2848 32.9035 19.4413C32.9035 19.5065 32.9099 19.5391 32.9035 19.5652C32.8075 19.8652 32.7115 20.1587 32.6154 20.4522C32.4788 20.8652 32.6154 21.1739 33.0252 21.3783C33.1725 21.2804 33.3197 21.1304 33.4862 21.0913C33.9088 20.987 34.0496 20.6804 34.1521 20.3022C34.2737 19.8587 34.4402 19.4217 34.6003 18.9522C35.1125 19.1283 35.5799 19.2848 36.0793 19.4543C35.9321 19.9174 35.7784 20.3413 35.6631 20.7783C35.6375 20.8891 35.6888 21.0913 35.7784 21.15C36.5915 21.7239 36.9501 22.513 36.9117 23.5109C36.8861 24.1891 36.9117 24.8739 36.9117 25.6043H39.2935V31.9565H40.8238V17.5957C39.8954 17.5435 39.1207 17.1848 38.4932 16.4935C37.8273 17.1978 37.0654 17.5826 36.137 17.5891C35.1957 17.5891 34.4274 17.1913 33.7935 16.5196C32.0776 17.9609 31.0723 17.9609 29.0427 16.5326C27.442 17.9609 26.2254 17.9543 24.3366 16.5326C23.2033 17.7326 21.2889 18.15 19.6369 16.5326C18.4524 17.7457 16.5892 18.137 14.9309 16.5391C13.1253 17.9609 12.1265 17.9609 10.212 16.5391C8.63055 17.9543 7.04265 17.9609 5.46116 16.5C4.84009 17.237 4.02694 17.5109 3.16256 17.6152V31.9435H5.42275C4.76966 30.4304 4.66081 29.9413 4.70563 28.8652C4.75045 27.8413 5.37152 27.2087 6.36396 27.1826C6.57525 27.1826 6.78014 27.1826 7.01704 27.1826C6.99143 27.0913 6.99143 27.0391 6.96582 27.0065C6.35115 26.113 6.2359 25.1022 6.27432 24.0587C6.31914 23.0283 6.94661 22.4283 7.94545 22.3891C9.09795 22.3435 10.1736 22.5326 10.9868 23.2174L10.9996 23.2304ZM37.6864 27.2348H25.1562V31.9565H37.6864V27.2348ZM15.7376 11.1587H18.8302V1.64348H15.7376V11.1652V11.1587ZM23.5299 11.1717V1.63043H20.4629V11.1783H23.5299V11.1717ZM25.1562 1.62391V11.1652H28.2487V1.63043H25.1562V1.62391ZM1.48503 11.2043C2.58631 11.2043 3.54673 11.1913 4.50715 11.2109C4.83369 11.2174 4.95534 11.0935 5.03858 10.7935C5.85173 7.8587 6.6777 4.92391 7.49725 1.98913C7.52927 1.87826 7.53567 1.76087 7.56128 1.60435C7.1515 1.60435 6.78654 1.62391 6.42158 1.60435C6.10144 1.57826 5.94137 1.69565 5.79411 1.99565C4.46233 4.74783 3.10494 7.48696 1.76675 10.2391C1.6387 10.5065 1.60028 10.813 1.48503 11.2174V11.2043ZM36.4507 1.64348C36.4507 1.72174 36.4379 1.76739 36.4507 1.81304C37.3023 4.85217 38.1602 7.8913 38.999 10.9304C39.0758 11.2043 39.2359 11.2043 39.4408 11.2043C40.3116 11.2043 41.1888 11.2043 42.0595 11.2043C42.1748 11.2043 42.29 11.1717 42.4949 11.1457C42.3989 10.8065 42.3605 10.4935 42.2324 10.2261C41.0287 7.75435 39.8186 5.28913 38.602 2.82391C38.1794 1.96304 37.4986 1.5587 36.5595 1.61087C36.5595 1.61087 36.5019 1.62391 36.4443 1.64348H36.4507ZM11.1276 11.1652H14.1177V1.63043H12.4658C12.0176 4.81304 11.5758 7.96957 11.1276 11.1587V11.1652ZM29.8814 1.61739V11.1717H32.8651C32.4169 7.96304 31.9687 4.79348 31.5269 1.61739H29.8814ZM6.54964 11.2043C7.52286 11.2043 8.41285 11.2174 9.29644 11.1848C9.39888 11.1848 9.55255 10.963 9.57176 10.8261C9.85348 8.94783 10.1224 7.06304 10.3849 5.17826C10.5514 4.00435 10.7051 2.83043 10.8715 1.63043H9.23241C8.34242 4.8 7.45884 7.95652 6.54964 11.2043ZM37.4495 11.2043C36.5403 7.96957 35.6503 4.8 34.7668 1.64348H33.1212C33.563 4.77391 33.992 7.8587 34.4338 10.9435C34.4466 11.0413 34.5939 11.1848 34.6835 11.1913C35.5863 11.2109 36.4827 11.2043 37.4559 11.2043H37.4495ZM20.4373 12.8348C20.4373 13.4478 20.4053 14.0087 20.4437 14.563C20.4949 15.3587 21.1544 15.9652 21.942 16.0043C22.6911 16.037 23.4274 15.4891 23.517 14.713C23.5939 14.1 23.5299 13.4739 23.5299 12.8348H20.4309H20.4373ZM25.1305 12.8348C25.1305 13.2717 25.1305 13.6565 25.1305 14.0413C25.1305 14.2304 25.1305 14.4196 25.1498 14.6022C25.2586 15.3783 25.8349 15.9326 26.5968 15.9978C27.2755 16.0565 28.0118 15.6391 28.1527 14.9478C28.2935 14.263 28.2615 13.5457 28.3063 12.8283H25.1305V12.8348ZM39.2871 12.8413C39.2871 13.4217 39.2679 13.95 39.2871 14.4783C39.3191 15.3196 39.9274 15.9391 40.7406 16.0043C41.5217 16.0696 42.2708 15.5022 42.3733 14.6739C42.4437 14.0804 42.3861 13.4674 42.3861 12.8413H39.2807H39.2871ZM15.7184 12.8413C15.7184 13.2978 15.7184 13.7348 15.7184 14.1652C15.7184 14.3543 15.7184 14.5435 15.7505 14.7261C15.8721 15.4239 16.4868 15.9587 17.2039 16.0043C17.9018 16.05 18.6253 15.587 18.7598 14.8761C18.8814 14.2174 18.8494 13.5261 18.8878 12.8413H15.7184ZM1.58107 12.8413C1.58107 13.4478 1.54906 13.9957 1.58747 14.537C1.6451 15.3587 2.26617 15.9522 3.06012 16.0109C3.78363 16.063 4.54556 15.5478 4.64801 14.8043C4.73765 14.1652 4.66722 13.5065 4.66722 12.8478H1.58107V12.8413ZM32.9484 12.8217C31.9751 12.8217 31.0147 12.8217 30.0543 12.8348C29.9839 12.8348 29.8558 12.9848 29.8558 13.0696C29.8558 13.6435 29.8302 14.2304 29.9198 14.7913C30.0287 15.5152 30.733 16.0304 31.4565 16.0109C32.1672 15.9913 32.8523 15.4696 32.9356 14.7717C33.006 14.1457 32.9484 13.5065 32.9484 12.8217ZM11.038 12.8413C11.038 13.4804 10.9996 14.0739 11.0508 14.6543C11.1148 15.3913 11.7295 15.9391 12.4786 15.9978C13.1893 16.0565 13.9449 15.5674 14.0665 14.85C14.1754 14.1978 14.1498 13.5261 14.1882 12.8348H11.0444L11.038 12.8413ZM9.41169 12.8152C8.42566 12.8152 7.48445 12.8152 6.53683 12.8283C6.4536 12.8283 6.29993 12.9848 6.29993 13.0696C6.29353 13.6109 6.27432 14.1652 6.34475 14.7C6.44719 15.4826 7.1451 16.0304 7.90063 16.0043C8.68817 15.9783 9.34126 15.3848 9.39888 14.5761C9.4373 14.0217 9.40528 13.4543 9.40528 12.8087L9.41169 12.8152ZM34.5939 12.8413C34.5939 13.4739 34.5555 14.0543 34.6003 14.6283C34.6579 15.3717 35.247 15.9196 36.0025 15.9978C36.694 16.0696 37.4495 15.6261 37.5904 14.9283C37.7248 14.2565 37.6992 13.5522 37.7441 12.8152C36.7644 12.8152 35.8936 12.8152 35.0229 12.8152C34.8884 12.8152 34.7539 12.8348 34.5875 12.8413H34.5939ZM7.89423 24.0457C7.58689 26.387 9.29003 27.5283 10.974 27.1304C11.2173 25.0304 9.98794 23.7913 7.89423 24.0457ZM15.7761 28.8196C15.3855 31.037 17.031 32.3543 18.8366 31.9174C19.0287 29.7978 17.9146 28.6565 15.7761 28.8196ZM15.68 27.163C16.0002 24.8413 14.3098 23.687 12.6003 24.0783C12.4146 26.2565 13.5543 27.4109 15.68 27.163ZM6.32554 28.8326C6.03742 30.9326 7.48445 32.387 9.38608 31.9304C9.6678 29.863 8.42566 28.5913 6.32554 28.8326ZM14.1049 31.95C14.3546 29.8435 13.0101 28.4935 11.0572 28.8457C10.6538 30.8217 12.0432 32.25 14.1049 31.95ZM29.0683 25.5783C29.0683 25.1283 29.0683 24.7304 29.0683 24.3261C29.0619 23.8891 29.0747 23.4522 29.0106 23.0283C28.9466 22.6239 28.5881 22.3696 28.2103 22.4217C27.8197 22.4739 27.5316 22.7022 27.5188 23.1065C27.4868 23.9217 27.5124 24.7435 27.5124 25.5848H29.0683V25.5783ZM30.6434 25.5783H32.1928C32.1928 24.75 32.2184 23.9413 32.18 23.1391C32.1608 22.6891 31.7766 22.3891 31.3733 22.4152C30.9827 22.4413 30.6562 22.7478 30.6434 23.1783C30.6241 23.9674 30.6434 24.7565 30.6434 25.5783ZM35.3366 25.5783C35.3366 24.7565 35.3558 23.9674 35.3302 23.1783C35.3174 22.7348 34.9588 22.4152 34.5555 22.4152C34.1713 22.4152 33.8063 22.7217 33.7935 23.1457C33.7615 23.9478 33.7871 24.7565 33.7871 25.5848H35.343L35.3366 25.5783Z" fill="#FFA80D"/>
<path d="M31.3804 39.1957H29.8885C29.8437 39.4892 29.8117 39.7631 29.7541 40.0305C29.5556 40.9305 29.069 41.6479 28.275 42.0783C26.6487 42.9457 25.0672 43.9892 23.3385 44.5566C20.3996 45.5218 16.6924 44.2305 15.8472 40.3174C15.7063 39.6718 15.7255 38.9805 15.7448 38.3153C15.764 37.4935 16.3594 36.8935 17.179 36.8283C19.2599 36.6653 21.0591 37.2457 22.3909 38.974C22.4229 39.0196 22.4741 39.0522 22.5445 39.124C22.9287 38.5761 23.3 38.0413 23.6778 37.5131C24.7087 36.0653 26.4118 35.5957 27.9933 36.3457C28.2494 36.4631 28.3711 36.4044 28.5375 36.2283C29.037 35.7 29.5492 35.1913 30.0614 34.6631C30.4392 35.0609 30.7849 35.4327 31.1627 35.837C30.612 36.3653 30.0358 36.9196 29.3507 37.5848H31.3804V39.2022V39.1957ZM17.339 38.4392C16.9229 41.6674 19.6184 43.624 21.9683 43.1153C22.218 40.1609 20.2523 38.1653 17.339 38.4392ZM23.6202 42.6522C23.6778 42.6327 23.7226 42.6261 23.7611 42.6066C24.9392 42.0066 26.1173 41.4131 27.289 40.8066C27.8973 40.4935 28.2494 39.9979 28.2622 39.287C28.2686 38.6544 27.9997 38.1783 27.4747 37.8522C26.6679 37.35 25.5987 37.5718 25.016 38.3674C24.4974 39.0783 23.9916 39.8022 23.4985 40.5392C23.4153 40.6631 23.3705 40.8587 23.3897 41.0087C23.4473 41.55 23.537 42.0848 23.6266 42.6522H23.6202Z" fill="#FFA80D"/>
<path d="M26.7383 28.813H36.1056V30.3717H26.7383V28.813Z" fill="#FFA80D"/>
</g>
<defs>
<clipPath id="clip0_6520_2166">
<rect width="44" height="48" fill="white"/>
</clipPath>
</defs>
</svg>
