<svg width="38" height="43" viewBox="0 0 38 43" fill="none" xmlns="http://www.w3.org/2000/svg">
<path d="M18.5749 43C17.6363 42.6913 16.6921 42.3971 15.7592 42.0704C12.2182 40.8298 8.90964 39.1671 6.07823 36.6579C2.83591 33.785 0.807212 30.235 0.198716 25.9239C0.0662385 24.9842 0.0134722 24.0266 0.0112269 23.0779C-0.00673612 17.7002 0.00224537 12.3226 0.00224537 6.9449C0.00224537 6.04788 0.275058 5.68749 1.13279 5.42254C6.84839 3.65318 12.5651 1.88608 18.2773 0.107739C18.6972 -0.0224925 19.0879 -0.0415782 19.5067 0.0886535C25.2335 1.86924 30.9615 3.64196 36.6883 5.41917C37.5606 5.68974 37.8188 6.04451 37.8188 6.9449C37.8188 12.1688 37.7717 17.3926 37.8312 22.6165C37.9109 29.6299 34.837 34.8886 29.0753 38.6945C26.1889 40.6008 23.0151 41.8695 19.7076 42.8271C19.5505 42.872 19.4012 42.9416 19.2485 43H18.576H18.5749ZM2.52268 7.63087C2.52268 7.75548 2.52268 7.86551 2.52268 7.97665C2.52268 13.1152 2.5137 18.2537 2.53278 23.3923C2.53615 24.2141 2.61249 25.0437 2.74272 25.8566C3.38939 29.887 5.48994 33.0429 8.66602 35.5274C11.6557 37.8648 15.0844 39.3019 18.6916 40.3617C18.8308 40.4021 19.0026 40.4032 19.1418 40.3617C22.2685 39.4411 25.2683 38.2319 27.9785 36.3862C32.815 33.0934 35.3837 28.606 35.3085 22.6625C35.2479 17.8327 35.2894 13.0018 35.3085 8.17088C35.3096 7.74762 35.1985 7.57585 34.791 7.45124C29.6591 5.8806 24.5341 4.29199 19.4101 2.69666C19.0733 2.59225 18.7769 2.58551 18.4379 2.69104C14.5691 3.89793 10.6958 5.09022 6.82369 6.28813C5.39563 6.73047 3.96982 7.1773 2.52155 7.62862L2.52268 7.63087Z" fill="#FFA80D"/>
<path d="M18.887 30.6426C15.8917 30.6426 12.8953 30.6448 9.89994 30.6426C6.80132 30.6403 4.99828 27.6338 6.48809 24.9236C9.49801 19.446 12.5248 13.9774 15.5448 8.50545C16.2768 7.17955 17.3961 6.45654 18.9129 6.45654C20.4296 6.45654 21.5478 7.1818 22.2798 8.50769C25.292 13.9684 28.3109 19.4258 31.3163 24.8899C32.8241 27.6304 31.039 30.6403 27.9168 30.6426C24.9069 30.6448 21.897 30.6426 18.887 30.6426ZM18.9039 28.1222C21.8857 28.1222 24.8676 28.1222 27.8495 28.1222C29.1417 28.1222 29.703 27.1892 29.0833 26.0631C26.1003 20.6496 23.1106 15.2404 20.131 9.82573C19.8537 9.32164 19.5012 8.96687 18.8949 8.97361C18.3089 8.97922 17.9642 9.32725 17.6959 9.81675C14.7163 15.2315 11.7265 20.6417 8.74245 26.0542C8.11823 27.1858 8.67172 28.1233 9.95831 28.1233C12.9402 28.1244 15.922 28.1233 18.9039 28.1233V28.1222Z" fill="#FFA80D"/>
<path d="M20.1712 17.416C20.1712 18.2827 20.1745 19.1495 20.1712 20.0162C20.1667 20.8267 19.6424 21.3982 18.9115 21.3982C18.1818 21.3982 17.6541 20.8256 17.653 20.0162C17.6496 18.2693 17.6485 16.5224 17.653 14.7743C17.6552 13.9873 18.1717 13.4294 18.8913 13.4181C19.63 13.4069 20.1667 13.9705 20.1712 14.7743C20.1768 15.6545 20.1723 16.5358 20.1723 17.416H20.1712Z" fill="#FFA80D"/>
<path d="M18.9063 23.0825C19.5922 23.0803 20.1614 23.6405 20.1693 24.3242C20.1772 25.0203 19.5877 25.6097 18.8939 25.5996C18.2158 25.5895 17.6489 25.0113 17.6522 24.3321C17.6556 23.6495 18.2237 23.0836 18.9074 23.0825H18.9063Z" fill="#FFA80D"/>
</svg>
