<svg width="41" height="61" viewBox="0 0 41 61" fill="none" xmlns="http://www.w3.org/2000/svg">
<g clip-path="url(#clip0_6520_2155)">
<path d="M40.9998 39.6182C33.8182 40.0696 26.6295 40.0766 19.539 39.6113C17.3087 39.4654 15.0364 39.2363 12.8412 39.021L10.7583 38.8127C9.52393 38.6946 8.9278 38.0349 8.9278 36.7918C8.9278 29.5418 8.9278 22.2849 8.9278 15.0349C8.9278 13.5904 9.52393 13.0002 10.9827 13.0002C13.9774 13.0002 16.9721 13.0002 19.9668 13.0002H30.4307H34.8281C36.883 13.0002 38.9449 13.0002 40.9998 13.0002V11.9585C38.9449 11.9585 36.883 11.9585 34.8281 11.9585H30.4307H25.1988C20.4647 11.9585 15.7237 11.9585 10.9897 11.9585C8.95585 11.9585 7.88281 13.021 7.88281 15.0349C7.88281 22.2849 7.88281 29.5418 7.88281 36.7918C7.88281 38.5627 8.89975 39.6738 10.6671 39.8474L12.7431 40.0557C14.9452 40.2779 17.2246 40.5002 19.4759 40.6529C23.0948 40.8891 26.7277 41.0071 30.3816 41.0071C34.0356 41.0071 37.4581 40.8891 41.0068 40.6668V39.6252L40.9998 39.6182Z" fill="#FFA80D"/>
<path d="M24.7996 55.361C27.079 55.361 29.3583 55.361 31.6377 55.361C32.4652 55.361 33.2928 55.361 34.1204 55.361H35.3898C36.4137 55.361 36.9818 55.3609 37.3605 54.979C37.7322 54.5971 37.7182 54.0554 37.6972 53.0346C37.6691 52.0832 37.1852 51.604 36.2384 51.604C36.2244 51.604 36.2104 51.604 36.1963 51.604C34.8147 51.6248 33.4261 51.6248 32.0444 51.6179H30.9293H28.7692C27.3806 51.6179 25.9919 51.6179 24.6033 51.6109C24.1053 51.5971 23.7336 51.729 23.4811 51.986C23.2427 52.236 23.1305 52.5832 23.1585 53.0276C23.1655 53.1665 23.1585 53.3123 23.1585 53.4512C23.1585 53.5485 23.1585 53.6526 23.1585 53.7498C23.1725 55.0346 23.4952 55.354 24.7996 55.354V55.361ZM24.2386 52.7082C24.2386 52.7082 24.2807 52.6457 24.5892 52.6526C25.9779 52.6665 27.3735 52.6665 28.7692 52.6596H29.8703H32.0374C33.4331 52.6596 34.8217 52.6665 36.2104 52.6457C36.6031 52.6387 36.6312 52.6665 36.6452 53.0901C36.6592 53.6109 36.6732 54.1457 36.6171 54.2429C36.4979 54.3193 35.9158 54.3193 35.3968 54.3193H34.1274C31.0205 54.3193 27.9136 54.3193 24.8067 54.3193C24.6944 54.3193 24.3859 54.3193 24.2526 54.2915C24.2245 54.1596 24.2175 53.854 24.2175 53.7498C24.2175 53.6596 24.2175 53.5693 24.2175 53.479C24.2175 53.3123 24.2175 53.1457 24.2175 52.979C24.2105 52.7985 24.2386 52.7221 24.2526 52.7151L24.2386 52.7082Z" fill="#FFA80D"/>
<path d="M10.6185 44.778C9.86106 44.778 9.16674 45.0696 8.64775 45.5835C8.13578 46.0974 7.86226 46.7918 7.86927 47.5349C7.89031 49.0002 9.12466 50.2016 10.6115 50.2016C11.3549 50.2016 12.0492 49.9168 12.5612 49.403C13.0802 48.8821 13.3537 48.1877 13.3467 47.4377C13.3257 45.9446 12.1334 44.7641 10.6115 44.778H10.6185ZM11.8178 48.6668C11.5022 48.9793 11.0744 49.153 10.6185 49.153C9.69975 49.153 8.94231 48.4168 8.92829 47.5141C8.92829 47.0557 9.08959 46.6252 9.40519 46.3127C9.72079 45.9932 10.1556 45.8196 10.6255 45.8196C11.5513 45.8196 12.2877 46.5349 12.3017 47.4516C12.3017 47.9168 12.1334 48.3474 11.8178 48.6668Z" fill="#FFA80D"/>
<path d="M13.9562 48.0488C13.9562 48.7849 14.2507 49.4724 14.7767 49.9724C15.2887 50.4654 15.976 50.7363 16.7054 50.7363C16.7264 50.7363 16.7475 50.7363 16.7685 50.7363C18.2834 50.7085 19.4546 49.5071 19.4336 48.0141C19.4266 47.2641 19.118 46.5696 18.585 46.0557C18.059 45.5557 17.3787 45.2918 16.6283 45.3127C15.1414 45.3543 13.9421 46.5835 13.9562 48.0488ZM16.7054 46.3543C17.1332 46.3543 17.54 46.5141 17.8556 46.8127C18.1922 47.1321 18.3746 47.5627 18.3816 48.0349C18.3956 48.9654 17.6873 49.6877 16.7405 49.7016C16.2776 49.7085 15.8287 49.5418 15.5061 49.2293C15.1835 48.9238 15.0082 48.5002 15.0082 48.0418C15.0082 47.1391 15.7446 46.3752 16.6563 46.3543C16.6703 46.3543 16.6914 46.3543 16.7054 46.3543Z" fill="#FFA80D"/>
<path d="M41 57.5485V56.5069H14.9174V57.6805C14.9174 58.1458 14.9174 58.5902 14.9174 59.0416C14.9034 59.7708 14.728 59.9374 13.9916 59.9444C12.617 59.9583 11.2494 59.9583 9.87479 59.9444C9.15942 59.9444 8.98409 59.7638 8.97007 59.0346C8.97007 58.6041 8.97007 58.1666 8.97007 57.7152V56.7083L8.47913 56.5346C8.38796 56.4999 8.29678 56.4721 8.20561 56.4444C7.11153 56.1041 6.77489 55.6458 6.77489 54.493V16.7708H5.51249C4.9935 16.7708 4.51659 16.7777 4.0467 16.7708C3.63992 16.7638 3.34536 16.868 3.12795 17.0833C2.91054 17.3055 2.80534 17.618 2.82638 18.0208C2.83339 18.2777 2.83339 18.5416 2.82638 18.7916V19.1319V19.5277L3.21211 19.6319C3.75915 19.7846 4.19398 19.9027 4.27814 20.0138C4.3623 20.118 4.3623 20.5694 4.3623 21.0971V22.611C4.3623 23.993 4.3623 25.3819 4.3623 26.7638C4.3623 27.3471 4.32022 27.4235 3.65395 27.4305C2.97366 27.4374 2.27232 27.4444 1.58502 27.4305C1.17824 27.4166 1.06603 27.3055 1.06603 26.9166C1.07304 25.4027 1.06603 23.8888 1.06603 22.3749V20.3263C1.06603 20.118 1.10109 19.9652 1.17123 19.9027C1.23435 19.8402 1.3676 19.8263 1.46579 19.8333C1.84451 19.8333 2.13907 19.736 2.33544 19.5277C2.64403 19.2083 2.60896 18.7569 2.60195 18.6041C2.58091 18.3471 2.58792 18.0694 2.60195 17.8333C2.63702 17.0346 3.10691 16.5763 3.92046 16.5555C4.42542 16.5416 4.93038 16.5416 5.47041 16.5485H6.78892V15.0555C6.78892 14.1735 6.79593 13.2985 6.80294 12.4166C6.81697 10.4652 6.83801 8.44437 6.76788 6.45131C6.65566 3.44437 9.15942 2.35409 10.6533 2.18048C17.6666 1.38187 24.7431 1.00687 31.6652 1.05548C34.8072 1.08326 37.9282 1.18743 41.007 1.37493V0.31937C37.9211 0.138814 34.8002 0.027703 31.6652 -7.47447e-05C24.708 -0.0556303 17.5824 0.326314 10.52 1.12493C8.11444 1.39576 5.58262 3.18743 5.70185 6.4652C5.77198 8.43048 5.75795 10.4374 5.73691 12.3819C5.7299 13.2638 5.72289 14.1458 5.72289 15.0277V15.4791H5.46339C4.90934 15.4791 4.39035 15.4721 3.87137 15.486C2.51779 15.5277 1.59904 16.4166 1.53592 17.7569C1.5219 18.0208 1.51488 18.3402 1.53592 18.6527C1.53592 18.7013 1.53592 18.736 1.53592 18.7638C1.5219 18.7638 1.49384 18.7638 1.46579 18.7638C1.04499 18.7638 0.673281 18.8819 0.413787 19.1319C0.14728 19.4235 0 19.8124 0 20.3194V22.368C0 23.8819 0 25.3888 0 26.9027C0 27.861 0.554054 28.4305 1.53592 28.4652C2.24427 28.486 2.95963 28.4791 3.66096 28.4652C4.87427 28.4513 5.39326 27.9444 5.40027 26.7638C5.40729 25.3749 5.40027 23.993 5.40027 22.6041V21.0902C5.40027 19.4583 5.26702 19.1527 3.87137 18.736C3.87137 18.486 3.87137 18.2291 3.87137 17.9721C3.87137 17.8749 3.87137 17.8263 3.87137 17.8124C3.89241 17.8124 3.9415 17.7985 4.01865 17.7985C4.50257 17.8124 4.98649 17.8055 5.5195 17.7985H5.72289V54.486C5.72289 56.1041 6.35409 56.9583 7.89702 57.4305C7.90404 57.4305 7.91105 57.4305 7.91806 57.4374V57.7013C7.91806 58.1527 7.91806 58.5971 7.91806 59.0346C7.93209 60.3333 8.5703 60.9652 9.86777 60.9721C11.2424 60.9791 12.624 60.9791 13.9986 60.9721C15.3101 60.9583 15.9343 60.3471 15.9624 59.0485C15.9694 58.5902 15.9694 58.1319 15.9624 57.6596V57.5346H40.986L41 57.5485Z" fill="#FFA80D"/>
<path d="M13.4934 5.41656C13.4794 6.27767 13.4864 7.13878 13.4934 7.99295V8.50684C13.5005 10.2013 14.1737 10.861 15.885 10.861H26.7417H30.3605H34.267C35.5715 10.861 36.8689 10.861 38.1734 10.861C39.1132 10.861 40.053 10.861 40.9998 10.861V9.81934C38.7555 9.81934 36.5112 9.81934 34.267 9.81934H30.3605H26.7417H15.885C14.7418 9.81934 14.5525 9.63184 14.5455 8.50684V7.99295C14.5455 7.13878 14.5384 6.28461 14.5455 5.43045C14.5525 4.56239 14.812 4.2985 15.6536 4.2985C24.1046 4.2985 32.5487 4.2985 40.9998 4.2985V3.25684C32.5557 3.25684 24.1046 3.25684 15.6536 3.25684C14.2369 3.25684 13.5145 3.986 13.4934 5.41656Z" fill="#FFA80D"/>
</g>
<defs>
<clipPath id="clip0_6520_2155">
<rect width="41" height="61" fill="white"/>
</clipPath>
</defs>
</svg>
